<?xml version="1.0" encoding="iso-8859-1"?>
<!-- Generator: Adobe Illustrator 19.0.0, SVG Export Plug-In . SVG Version: 6.00 Build 0)  -->
<svg xmlns="http://www.w3.org/2000/svg" xmlns:xlink="http://www.w3.org/1999/xlink" version="1.1" id="Capa_1" x="0px" y="0px" viewBox="0 0 57.246 57.246" style="enable-background:new 0 0 57.246 57.246;" xml:space="preserve" width="512px" height="512px">
<path d="M57.185,50.926c0.16-1.067,0.002-2.158-0.469-3.155c-0.628-1.328-1.735-2.333-3.119-2.828  c-0.007-0.003-0.014-0.003-0.021-0.005l-14.227-5.095c3.458-3.585,5.653-8.933,5.653-15.22c0-11.562-3-16-3-16c0,9.5-8,16-8,16  c0-7.5-3-14-3-14c0,5.875-4,9-4,9c-5.344-5.344,0-18,0-18c-7.61,1.004-14.425,6.25-14.425,15c0,6.188,1.728,10.304,4.425,13  c0,0-2.393-1.388-4.78-2.304c0.632,5.003,2.721,9.4,5.705,12.513L3.689,44.93c-0.013,0.005-0.027,0.007-0.04,0.012  c-1.383,0.495-2.491,1.5-3.119,2.828c-0.471,0.998-0.629,2.088-0.469,3.155c0.053,0.355,0.14,0.707,0.264,1.052  c0.16,0.446,0.39,0.849,0.65,1.231c0.545,0.801,1.278,1.459,2.177,1.885c0.747,0.353,1.545,0.53,2.347,0.53c0.001,0,0.003,0,0.004,0  c0.002,0,0.004,0,0.006,0c0.623,0,1.246-0.107,1.848-0.323l21.266-7.616l21.266,7.616c0.06,0.022,0.123,0.027,0.183,0.046  c0.264,0.085,0.529,0.157,0.798,0.201c0.124,0.02,0.248,0.021,0.372,0.032c0.168,0.016,0.336,0.044,0.505,0.044  c0.061,0,0.121-0.008,0.181-0.01c0.056-0.002,0.111-0.006,0.167-0.009c0.317-0.021,0.632-0.065,0.942-0.141  c0.027-0.007,0.053-0.016,0.08-0.023c0.332-0.086,0.659-0.197,0.976-0.347c0.902-0.426,1.637-1.087,2.182-1.892  c0.258-0.38,0.487-0.781,0.645-1.224C57.045,51.633,57.133,51.281,57.185,50.926z M50.564,53.416L50.564,53.416  c-0.88-0.315-1.585-0.955-1.985-1.8s-0.446-1.795-0.13-2.676c0.315-0.88,0.954-1.584,1.799-1.984  c0.475-0.225,0.983-0.337,1.493-0.337c0.388,0,0.778,0.067,1.155,0.199l0.027,0.01c0.875,0.313,1.579,0.954,1.979,1.802  c0.301,0.636,0.403,1.329,0.303,2.005c-0.034,0.225-0.089,0.448-0.167,0.666c-0.093,0.259-0.222,0.498-0.368,0.723  c-0.35,0.537-0.836,0.976-1.434,1.258c-0.423,0.201-0.871,0.313-1.323,0.336C51.46,53.64,51.003,53.573,50.564,53.416z   M15.009,30.81c0.598,0.316,0.98,0.537,0.99,0.542c0.314,0.182,0.66,0.27,1.001,0.27c0.604,0,1.197-0.273,1.587-0.781  c0.612-0.796,0.539-1.923-0.171-2.633c-2.547-2.547-3.839-6.445-3.839-11.586c0-3.529,1.293-6.626,3.739-8.957  c1.521-1.45,3.457-2.577,5.629-3.3c-1.316,4.54-2.687,12.342,1.643,16.672c0.388,0.388,0.9,0.586,1.415,0.586  c0.433,0,0.867-0.14,1.231-0.424c0.111-0.086,1.637-1.304,2.933-3.583c0.469,2.057,0.835,4.476,0.835,7.007  c0,0.772,0.444,1.474,1.141,1.806c0.274,0.13,0.567,0.194,0.859,0.194c0.451,0,0.898-0.152,1.262-0.448  c0.257-0.209,4.67-3.856,7.124-9.737c0.356,2.14,0.614,4.845,0.614,8.184c0,6.276-2.339,11.597-6.042,14.793  c-0.144,0.119-0.284,0.247-0.43,0.36c-0.007,0.006-0.015,0.011-0.023,0.017c-0.461,0.353-0.938,0.663-1.42,0.952  c0.729-1.192,1.152-2.587,1.152-4.097c0-4.28-1.406-6.045-1.566-6.232c-0.272-0.319-0.714-0.435-1.106-0.288  c-0.393,0.145-0.653,0.52-0.653,0.938c0,1.521-0.93,3.01-1.783,4.056c-0.399-1.893-1.143-3.377-1.185-3.462  c-0.209-0.412-0.672-0.627-1.125-0.521c-0.45,0.107-0.768,0.51-0.768,0.973c0,0.677-0.949,0.938-1.574,1.036  c-0.34-0.976,0.015-2.971,0.428-4.206c0.108-0.322,0.045-0.678-0.167-0.943c-0.213-0.266-0.547-0.404-0.884-0.37  c-3.833,0.399-5.944,2.611-5.944,6.227c0,1.04,0.16,1.975,0.478,2.801c-0.105,0.041-0.205,0.101-0.292,0.177  c-0.26,0.227-0.384,0.571-0.33,0.912c0.077,0.483,0.198,0.95,0.354,1.398C17.854,37.067,16.048,34.187,15.009,30.81z M22.335,39.247  c0.072,0.032,0.114,0.05,0.116,0.051c0.46,0.21,1.005,0.043,1.269-0.388c0.264-0.432,0.164-0.993-0.233-1.306  c-1.06-0.837-1.575-2.064-1.575-3.75c0-2.057,0.876-3.356,2.668-3.938c-0.318,1.546-0.495,3.742,0.647,4.969  c0.193,0.207,0.454,0.301,0.746,0.318c0.797-0.011,1.995-0.231,2.887-0.853c0.271,0.862,0.518,1.936,0.518,2.992  c0,0.389,0.225,0.742,0.577,0.906c0.353,0.164,0.768,0.11,1.065-0.14c0.11-0.092,1.921-1.632,3.034-3.806  c0.109,0.645,0.184,1.421,0.184,2.343c0,3.313-2.56,5.826-5.998,5.963c-0.717-0.017-1.424-0.1-2.117-0.251  C24.475,41.874,23.104,40.751,22.335,39.247z M5.505,46.619c0.51,0,1.019,0.113,1.493,0.337c0.846,0.399,1.484,1.104,1.8,1.984  c0.315,0.88,0.269,1.831-0.131,2.676c-0.399,0.846-1.104,1.484-1.984,1.8c-0.44,0.157-0.897,0.224-1.35,0.203  c-0.452-0.023-0.901-0.135-1.324-0.336c-0.596-0.282-1.081-0.719-1.43-1.254c-0.148-0.227-0.278-0.466-0.371-0.728  c-0.078-0.219-0.134-0.442-0.167-0.666c-0.1-0.676,0.003-1.369,0.303-2.005c0.401-0.848,1.104-1.488,1.979-1.802l0.026-0.009  C4.726,46.687,5.116,46.619,5.505,46.619z M10.644,51.999c0.165-0.451,0.278-0.913,0.321-1.383c0.012,0,0.024,0.006,0.036,0.006  c0.104,0,0.211-0.017,0.316-0.052l6-2c0.524-0.175,0.807-0.741,0.632-1.265c-0.175-0.523-0.74-0.808-1.265-0.632l-5.91,1.97  c-0.035-0.125-0.051-0.253-0.095-0.377c-0.089-0.249-0.2-0.483-0.319-0.71l2.957-0.986c0.524-0.175,0.807-0.741,0.632-1.265  c-0.174-0.524-0.739-0.809-1.265-0.632l-3,1c-0.209,0.07-0.366,0.212-0.484,0.38c-0.273-0.248-0.569-0.468-0.884-0.655l11.038-3.953  c2.091,1.582,4.405,2.59,6.822,2.985c0.572,0.121,1.163,0.192,1.771,0.192c0.088,0,0.173-0.01,0.261-0.012  c0.098,0.002,0.194,0.012,0.292,0.012c0.502,0,0.999-0.035,1.494-0.086c0.162-0.017,0.322-0.04,0.482-0.062  c0.337-0.047,0.671-0.106,1.003-0.176c0.173-0.036,0.347-0.069,0.518-0.112c0.442-0.111,0.88-0.238,1.312-0.39  c0.161-0.057,0.317-0.128,0.476-0.19c0.305-0.119,0.608-0.245,0.907-0.385c0.161-0.076,0.32-0.156,0.478-0.237  c0.377-0.192,0.748-0.401,1.114-0.626c0.035-0.022,0.071-0.041,0.106-0.063c0.45-0.282,0.895-0.579,1.327-0.911l11.239,4.025  c-0.385,0.227-0.739,0.492-1.053,0.8c-0.111-0.243-0.314-0.444-0.588-0.535l-3-1c-0.525-0.176-1.09,0.108-1.265,0.632  s0.108,1.09,0.632,1.265l3,1c0.064,0.022,0.129,0.024,0.194,0.032c-0.112,0.217-0.23,0.43-0.313,0.664  c-0.056,0.158-0.079,0.32-0.121,0.48c-0.044-0.022-0.079-0.057-0.127-0.073l-6-2c-0.526-0.175-1.091,0.109-1.265,0.632  c-0.175,0.524,0.108,1.09,0.632,1.265l6,2c0.105,0.035,0.212,0.052,0.316,0.052c0.094,0,0.185-0.018,0.274-0.043  c0.041,0.483,0.157,0.957,0.327,1.42l-17.979-6.439L10.644,51.999z" fill="#FFFFFF"/>
<g>
</g>
<g>
</g>
<g>
</g>
<g>
</g>
<g>
</g>
<g>
</g>
<g>
</g>
<g>
</g>
<g>
</g>
<g>
</g>
<g>
</g>
<g>
</g>
<g>
</g>
<g>
</g>
<g>
</g>
</svg>
