<svg xmlns="http://www.w3.org/2000/svg" viewBox="0 0 90.437 24.079">
    <g stroke-width=".265" aria-label="Campzy">
        <path fill="#FFFFFF" d="M9.449 19q-4.039 0-6.756-2.718Q0 13.564 0 9.5t2.693-6.756Q5.385.001 9.449.001q4.115 0 6.68 2.972l-1.676 1.625q-1.956-2.362-5.004-2.362-3.023 0-5.055 2.032Q2.388 6.275 2.388 9.5t2.006 5.233q2.032 2.032 5.055 2.032 3.175 0 5.512-2.667l1.702 1.65q-1.296 1.55-3.175 2.414-1.88.838-4.039.838z"/>
        <path fill="#FFFFFF" d="M20.193 14.79q0 .914.762 1.524.787.61 1.829.61 1.473 0 2.616-1.093 1.168-1.092 1.168-2.565-1.092-.864-3.048-.864-1.422 0-2.387.686-.94.686-.94 1.702zm3.023-9.042q2.59 0 4.089 1.397 1.499 1.371 1.499 3.784V18.6h-2.236v-1.727h-.101q-1.448 2.133-3.861 2.133-2.057 0-3.454-1.219-1.372-1.219-1.372-3.048 0-1.93 1.448-3.073 1.473-1.143 3.911-1.143 2.083 0 3.43.762v-.534q0-1.219-.966-2.057-.965-.864-2.26-.864-1.956 0-3.1 1.651l-2.057-1.295q1.702-2.438 5.03-2.438z"/>
        <path fill="#FFFFFF" d="M33.776 18.6h-2.337V6.154h2.235v1.727h.102q.533-.914 1.626-1.524 1.117-.61 2.21-.61 1.371 0 2.412.636t1.524 1.752q1.55-2.387 4.293-2.387 2.159 0 3.327 1.32t1.169 3.76V18.6H48v-7.417q0-1.752-.635-2.514-.635-.788-2.134-.788-1.346 0-2.26 1.143t-.915 2.693V18.6H39.72v-7.417q0-1.752-.635-2.514-.635-.788-2.134-.788-1.346 0-2.26 1.143t-.915 2.693z"/>
        <path fill="#FFFFFF" d="M59.164 16.87q1.676 0 2.82-1.27 1.142-1.245 1.142-3.226 0-1.956-1.143-3.226t-2.819-1.27q-1.702 0-2.845 1.27-1.117 1.27-1.117 3.226 0 1.981 1.117 3.251 1.143 1.245 2.845 1.245zm.381 2.134q-1.372 0-2.515-.585-1.117-.584-1.727-1.549h-.101l.101 1.727v5.487h-2.337V6.152h2.236v1.727h.101q.61-.965 1.727-1.55 1.143-.584 2.515-.584 2.464 0 4.166 1.93 1.752 1.956 1.752 4.7 0 2.768-1.752 4.699-1.702 1.93-4.166 1.93z"/>
        <path fill="#4caf50" d="M77.054 18.6H66.996v-2.032l7.087-8.28h-6.884V6.154h9.754v2.032l-7.087 8.28h7.188z"/>
        <path fill="#4caf50" d="M90.434 6.15l-7.798 17.932h-2.413l2.896-6.274L77.988 6.15h2.54l3.708 8.941h.051l3.607-8.94z"/>
    </g>
</svg>
