<?xml version="1.0" encoding="iso-8859-1"?>
<!-- Generator: Adobe Illustrator 19.0.0, SVG Export Plug-In . SVG Version: 6.00 Build 0)  -->
<svg version="1.1" id="Layer_1" xmlns="http://www.w3.org/2000/svg" xmlns:xlink="http://www.w3.org/1999/xlink" x="0px" y="0px"
	 viewBox="0 0 473.931 473.931" style="enable-background:new 0 0 473.931 473.931;" xml:space="preserve">
<circle style="fill:#A0BF19;" cx="236.966" cy="236.966" r="236.966"/>
<path style="fill:#FCC288;" d="M375.115,236.142c-3.005-3.753-5.253-5.268-6.002-9.018c6.002-3.008,12.007-15.031,12.007-18.791
	c-0.741-25.541-24.789-30.802-24.789-30.802s0,0-72.13,0c-5.261-0.748-1.5-15.031,1.504-20.288
	c12.767-22.537,20.284-42.824,20.284-53.357c-4.501-51.85-39.824-42.813-41.32-37.564c-0.752,52.598-12.782,64.62-26.305,73.645
	c-13.53,9.003-15.034,19.536-30.802,55.599c-15.783,36.063-45.096,24.045-45.096,24.045s0.752,11.266,0.752,117.211
	c88.669,16.542,139.018,14.282,162.303,12.026c23.307-2.245,30.81-18.024,30.81-26.29c0-9.766,3.005-15.046,6.769-17.287
	c16.531-13.526,11.266-18.032,6.765-27.794c-4.513-9.785-3.001-12.782,4.501-19.551
	C383.239,250.399,378.127,239.884,375.115,236.142z"/>
<path style="fill:#5C524A;" d="M158.688,215.851h-45.792c-2.499,0-4.528,2.021-4.528,4.539v119.415c0,2.492,2.028,4.539,4.528,4.539
	h45.792c2.499,0,4.528-2.047,4.528-4.539V220.39C163.216,217.871,161.188,215.851,158.688,215.851z"/>
<g>
</g>
<g>
</g>
<g>
</g>
<g>
</g>
<g>
</g>
<g>
</g>
<g>
</g>
<g>
</g>
<g>
</g>
<g>
</g>
<g>
</g>
<g>
</g>
<g>
</g>
<g>
</g>
<g>
</g>
</svg>
