<?xml version="1.0"?>
<svg xmlns="http://www.w3.org/2000/svg" height="512px" version="1.1" viewBox="0 0 512 512" width="512px">
<g id="surface1">
<path d="M 508.773438 402.109375 C 508.511719 401.703125 442.882812 298.722656 436.273438 288.175781 C 430.410156 278.816406 418.066406 275.980469 408.707031 281.847656 C 399.347656 287.710938 396.515625 300.054688 402.378906 309.414062 C 407.746094 317.976562 412.960938 326.269531 417.976562 334.21875 L 397.027344 455.40625 C 395.367188 465.019531 387.078125 472 377.320312 472 L 356.175781 472 L 274.152344 294.605469 C 270.882812 287.53125 263.796875 283 256 283 C 248.203125 283 241.117188 287.53125 237.847656 294.605469 L 155.824219 472 L 134.476562 472 C 124.777344 472 116.496094 465.070312 114.789062 455.523438 L 93.191406 334.894531 C 143.371094 255.660156 214.847656 140.261719 255.996094 62.441406 C 277.964844 104.027344 310.898438 160.761719 354.316406 231.804688 C 358.089844 237.976562 364.664062 241.378906 371.402344 241.378906 C 374.957031 241.378906 378.558594 240.429688 381.8125 238.441406 C 391.238281 232.679688 394.210938 220.371094 388.449219 210.945312 C 332.484375 119.375 294.34375 52.257812 275.085938 11.460938 C 274.992188 11.265625 274.890625 11.082031 274.789062 10.890625 C 274.691406 10.695312 274.59375 10.496094 274.488281 10.304688 C 274.21875 9.820312 273.9375 9.351562 273.632812 8.898438 C 273.558594 8.78125 273.472656 8.675781 273.394531 8.5625 C 273.136719 8.191406 272.867188 7.832031 272.585938 7.480469 C 272.476562 7.347656 272.367188 7.214844 272.253906 7.082031 C 271.953125 6.726562 271.640625 6.382812 271.316406 6.050781 C 271.234375 5.96875 271.160156 5.882812 271.078125 5.800781 C 270.675781 5.398438 270.253906 5.015625 269.816406 4.652344 C 269.703125 4.558594 269.582031 4.46875 269.464844 4.375 C 269.132812 4.109375 268.792969 3.855469 268.445312 3.609375 C 268.285156 3.5 268.125 3.390625 267.964844 3.28125 C 267.582031 3.03125 267.195312 2.796875 266.796875 2.574219 C 266.640625 2.484375 266.484375 2.398438 266.324219 2.3125 C 265.902344 2.089844 265.472656 1.882812 265.035156 1.691406 C 264.824219 1.601562 264.613281 1.515625 264.398438 1.429688 C 264.058594 1.296875 263.714844 1.171875 263.367188 1.054688 C 263.164062 0.984375 262.960938 0.914062 262.753906 0.851562 C 262.234375 0.695312 261.703125 0.558594 261.167969 0.441406 C 261 0.40625 260.832031 0.382812 260.664062 0.351562 C 260.230469 0.269531 259.792969 0.203125 259.351562 0.152344 C 259.171875 0.132812 258.988281 0.109375 258.804688 0.09375 C 258.210938 0.0351562 257.605469 0 257 0 L 255 0 C 254.390625 0 253.789062 0.0351562 253.191406 0.0898438 C 253.011719 0.105469 252.828125 0.128906 252.648438 0.148438 C 252.207031 0.203125 251.769531 0.269531 251.335938 0.351562 C 251.167969 0.382812 251 0.40625 250.832031 0.441406 C 250.296875 0.554688 249.765625 0.691406 249.242188 0.851562 C 249.039062 0.910156 248.839844 0.984375 248.636719 1.050781 C 248.285156 1.167969 247.9375 1.296875 247.597656 1.433594 C 247.386719 1.515625 247.175781 1.601562 246.96875 1.691406 C 246.523438 1.886719 246.085938 2.09375 245.660156 2.320312 C 245.511719 2.398438 245.363281 2.484375 245.214844 2.566406 C 244.8125 2.792969 244.421875 3.03125 244.035156 3.285156 C 243.875 3.390625 243.71875 3.496094 243.5625 3.605469 C 243.210938 3.851562 242.863281 4.113281 242.523438 4.382812 C 242.414062 4.472656 242.296875 4.558594 242.1875 4.648438 C 241.75 5.015625 241.324219 5.398438 240.917969 5.804688 C 240.839844 5.878906 240.769531 5.960938 240.695312 6.035156 C 240.363281 6.375 240.046875 6.726562 239.738281 7.085938 C 239.632812 7.214844 239.523438 7.34375 239.421875 7.472656 C 239.132812 7.832031 238.855469 8.199219 238.59375 8.582031 C 238.519531 8.6875 238.441406 8.785156 238.371094 8.890625 C 238.0625 9.351562 237.777344 9.824219 237.507812 10.3125 C 237.40625 10.492188 237.316406 10.679688 237.222656 10.867188 C 237.117188 11.066406 237.007812 11.257812 236.914062 11.464844 C 202.859375 83.605469 115.5 224.8125 57.777344 315.960938 C 55.777344 317.988281 54.230469 320.429688 53.242188 323.113281 C 24.308594 368.714844 3.847656 400.152344 3.242188 401.082031 C 1.128906 404.328125 0 408.121094 0 412 L 0 492 C 0 503.046875 8.953125 512 20 512 C 31.046875 512 40 503.046875 40 492 L 40 417.929688 C 44.085938 411.636719 51.570312 400.074219 61.464844 384.65625 L 75.414062 462.570312 C 80.539062 491.210938 105.378906 512 134.476562 512 L 377.320312 512 C 406.59375 512 431.457031 491.0625 436.445312 462.21875 L 449.882812 384.472656 C 460.164062 400.5625 467.921875 412.59375 472 418.90625 L 472 492 C 472 503.046875 480.953125 512 492 512 C 503.046875 512 512 503.046875 512 492 L 512 413 C 512 409.132812 510.878906 405.351562 508.773438 402.109375 Z M 256 350.65625 L 312.105469 472 L 199.894531 472 Z M 256 350.65625 " style=" fill-rule:nonzero;fill-opacity:1;" stroke="#FFFFFF" fill="#FFFFFF"/>
</g>
</svg>
