<svg id="Layer_1_1_" enable-background="new 0 0 64 64" height="512" viewBox="0 0 64 64" width="512" xmlns="http://www.w3.org/2000/svg"><path d="m38 8h-2c0-2.206-1.794-4-4-4s-4 1.794-4 4h-2c0-3.309 2.691-6 6-6s6 2.691 6 6z" fill="#4398d1"/><path d="m51.083 37.083-2.083-18.083h-34l-2.07 17.977-2.11 17.297c-.436 3.575 2.354 6.726 5.956 6.726h29.724c3.503 0 6.261-2.988 5.981-6.479z" fill="#63c1ff"/><path d="m37 8h4v12h-4z" fill="#dfdfdf"/><path d="m23 27.997v-3.997c-.552 0-1-.448-1-1v-2c0-.552.448-1 1-1v-12h-1.253c-1.655 0-3.139 1.019-3.733 2.564l-2.435 6.332c-.986 2.562-.618 5.448.977 7.682 1.494 2.092 3.882 3.355 6.444 3.419z" fill="#4398d1"/><path d="m28 21v2c0 .552-.448 1-1 1v4h10v-4c-.552 0-1-.448-1-1v-2c0-.552.448-1 1-1v-12h-10v12c.552 0 1 .448 1 1z" fill="#4398d1"/><path d="m23 8h4v12h-4z" fill="#dfdfdf"/><path d="m42 21v2c0 .552-.448 1-1 1v3.997c2.562-.064 4.95-1.328 6.444-3.419 1.596-2.234 1.963-5.12.977-7.682l-2.435-6.332c-.594-1.545-2.078-2.564-3.733-2.564h-1.253v12c.552 0 1 .448 1 1z" fill="#4398d1"/><path d="m28 23v-2c0-.552-.448-1-1-1h-4c-.552 0-1 .448-1 1v2c0 .552.448 1 1 1h4c.552 0 1-.448 1-1z" fill="#bebebe"/><path d="m42 23v-2c0-.552-.448-1-1-1h-4c-.552 0-1 .448-1 1v2c0 .552.448 1 1 1h4c.552 0 1-.448 1-1z" fill="#bebebe"/><path d="m38 39h-12c-1.657 0-3 1.343-3 3v12c0 1.657 1.343 3 3 3h12c1.657 0 3-1.343 3-3v-11-1c0-1.657-1.343-3-3-3z" fill="#4398d1"/><path d="m48.812 21.329c-.216 1.153-.665 2.265-1.368 3.249-1.494 2.092-3.882 3.355-6.444 3.419v2.003l-2 2-2-2v-2h-10v2l-2 2-2-2v-2.003c-2.562-.064-4.95-1.328-6.444-3.419-.702-.983-1.152-2.096-1.368-3.249-.404 2.164.064 4.423 1.368 6.249 1.095 1.533 2.672 2.615 4.444 3.112v3.31l4 4 4-4v-3h6v3l4 4 4-4v-3.31c1.772-.497 3.349-1.579 4.444-3.112 1.304-1.825 1.772-4.085 1.368-6.249z" fill="#5fb9f5"/><path d="m23 24v3.997 5.003l2 2 2-2v-5-4z" fill="#dfdfdf"/><path d="m37 24v4 5l2 2 2-2v-5.003-3.997z" fill="#dfdfdf"/><path d="m52.316 52.47c-.652 2.585-2.991 4.53-5.816 4.53h-29.724c-2.763 0-5.042-1.857-5.76-4.334l-.196 1.608c-.436 3.575 2.354 6.726 5.956 6.726h29.724c3.503 0 6.261-2.988 5.981-6.479z" fill="#5fb9f5"/><path d="m5.112 54.834.714.535c1.389 1.042 3.144 1.47 4.856 1.184.224-.037.44-.096.651-.164 1.638-.535 2.844-1.98 3.039-3.732l1.628-14.657-3.07-1.023-2.93-.977-6.25 13.394c-.481 1.031-.549 2.208-.189 3.288.286.858.827 1.609 1.551 2.152z" fill="#4398d1"/><path d="m49.961 52.656c.22 1.978 1.727 3.57 3.69 3.897 1.713.285 3.467-.143 4.856-1.184l.714-.535c.724-.543 1.265-1.294 1.551-2.152.36-1.08.292-2.257-.189-3.288l-6.251-13.394-3.249 1.083-2.751.917z" fill="#4398d1"/><path d="m37 45h-10c-.552 0-1-.448-1-1 0-.552.448-1 1-1h10c.552 0 1 .448 1 1 0 .552-.448 1-1 1z" fill="#dfdfdf"/></svg>