<svg id="Layer_1_1_" enable-background="new 0 0 64 64" height="512" viewBox="0 0 64 64" width="512" xmlns="http://www.w3.org/2000/svg"><path d="m32 4c2.206 0 4 1.794 4 4h2c0-3.309-2.691-6-6-6s-6 2.691-6 6h2c0-2.206 1.794-4 4-4z"/><path d="m26 56h12c1.103 0 2-.897 2-2v-12c0-1.103-.897-2-2-2h-12c-1.103 0-2 .897-2 2v12c0 1.103.897 2 2 2zm0-13h12v2h-12z"/><path d="m25 33.586 1-1v-7.586h-2v7.586z"/><path d="m23 21h4v2.001h-4z"/><path d="m5.712 54.034.713.536c1.164.872 2.653 1.235 4.092.998 1.514-.252 2.69-1.495 2.86-3.021l1.539-13.853-4.388-1.462-5.872 12.584c-.375.803-.427 1.708-.146 2.549.222.669.638 1.246 1.202 1.669z"/><path d="m16.994 38.11-1.628 14.656c-.195 1.756-1.239 3.265-2.713 4.115 1.043 1.896 3.053 3.119 5.252 3.119h28.189c2.273 0 4.321-1.291 5.336-3.28-1.339-.872-2.28-2.3-2.463-3.953l-1.629-14.657c-.052-.469.23-.91.677-1.059l1.976-.659-1.43-11.721c-.102.163-.192.331-.305.488-1.474 2.064-3.764 3.421-6.257 3.755v4.086c0 .265-.105.52-.293.707l-2 2c-.194.195-.45.293-.706.293s-.512-.098-.707-.293l-2-2c-.188-.187-.293-.442-.293-.707v-4h-8v4c0 .265-.105.52-.293.707l-2 2c-.195.195-.451.293-.707.293s-.512-.098-.707-.293l-2-2c-.188-.187-.293-.442-.293-.707v-4.085c-2.494-.334-4.784-1.691-6.258-3.756-.112-.157-.203-.325-.304-.487l-1.416 11.615 2.295.765c.447.148.729.59.677 1.058zm5.006 3.89c0-2.206 1.794-4 4-4h12c2.206 0 4 1.794 4 4v.667l2.8 3.733-1.6 1.2-1.2-1.6v8c0 2.206-1.794 4-4 4h-12c-2.206 0-4-1.794-4-4z"/><path d="m22 26.888v-2.166c-.595-.347-1-.985-1-1.722v-2c0-.737.405-1.375 1-1.722v-10.278h-.253c-1.232 0-2.357.773-2.8 1.923l-2.435 6.332c-.868 2.256-.547 4.776.857 6.742 1.101 1.541 2.784 2.572 4.631 2.891z"/><path d="m24 9h2v10h-2z"/><path d="m39 33.586 1-1v-7.586h-2v7.586z"/><path d="m37 21h4v2.001h-4z"/><path d="m38 9h2v10h-2z"/><path d="m36 19.278v-10.278h-8v10.278c.595.347 1 .985 1 1.722v2c0 .737-.405 1.375-1 1.722v2.278h8v-2.278c-.595-.347-1-.985-1-1.722v-2c0-.737.405-1.375 1-1.722z"/><path d="m53.803 37.23-4.388 1.462 1.54 13.853c.17 1.526 1.346 2.769 2.861 3.021 1.434.24 2.927-.124 4.091-.998l.714-.536c.563-.422.979-1 1.202-1.668.281-.84.229-1.745-.146-2.549z"/><path d="m46.63 23.997c1.405-1.966 1.726-4.487.858-6.743l-2.435-6.332c-.443-1.149-1.568-1.922-2.8-1.922h-.253v10.278c.595.347 1 .985 1 1.722v2c0 .737-.405 1.375-1 1.722v2.166c1.847-.319 3.53-1.35 4.63-2.891z"/></svg>