<?xml version="1.0"?>
<svg xmlns="http://www.w3.org/2000/svg" height="512px" viewBox="0 0 192 192" width="512px" class=""><g><path d="m168 96v-48a16.019 16.019 0 0 0 -16-16h-112a16.019 16.019 0 0 0 -16 16v48a24.028 24.028 0 0 0 -24 24v64a8 8 0 0 0 12.437 6.656l11.563-7.708v9.052h16v-16h112v16h16v-9.052l11.562 7.708a8 8 0 0 0 12.438-6.656v-64a24.028 24.028 0 0 0 -24-24zm-128-48h112v48h-16v-24a16.019 16.019 0 0 0 -16-16h-48a16.019 16.019 0 0 0 -16 16v24h-16zm80 48h-48v-24h48l.01 24zm56 73.052-11.563-7.708a7.992 7.992 0 0 0 -4.437-1.344h-128a8 8 0 0 0 -4.438 1.344l-11.562 7.708v-49.052a8.009 8.009 0 0 1 8-8h144a8.009 8.009 0 0 1 8 8z" data-original="#000000" class="active-path" data-old_color="#000000" fill="#14AD49"/></g> </svg>
