<svg height="512" viewBox="0 0 64 64" width="512" xmlns="http://www.w3.org/2000/svg"><g fill="#78b9eb"><path d="m59 50v6h-3l-2-6z"/><path d="m10 50-2 6h-3v-6z"/><path d="m3 42h58v8h-58z"/><path d="m59 38v4h-54v-4a5.9 5.9 0 0 1 1-3.31 5.983 5.983 0 0 1 5-2.69h42a5.983 5.983 0 0 1 5 2.69 5.9 5.9 0 0 1 1 3.31z"/><path d="m58 11v5h-6v-5a3 3 0 0 1 6 0z"/><path d="m52 26v6h-18v-6a2.006 2.006 0 0 1 2-2h14a2.006 2.006 0 0 1 2 2z"/><path d="m30 26v6h-18v-6a2.006 2.006 0 0 1 2-2h14a2.006 2.006 0 0 1 2 2z"/><path d="m12 11v5h-6v-5a3 3 0 0 1 6 0z"/></g><path d="m61 41h-1v-3a6.967 6.967 0 0 0 -1-3.59v-23.41a4 4 0 0 0 -8 0v4h-38v-4a4 4 0 0 0 -8 0v23.41a6.967 6.967 0 0 0 -1 3.59v3h-1a1 1 0 0 0 -1 1v8a1 1 0 0 0 1 1h1v5a1 1 0 0 0 1 1h3a1.014 1.014 0 0 0 .95-.68l1.77-5.32h42.56l1.77 5.32a1.014 1.014 0 0 0 .95.68h3a1 1 0 0 0 1-1v-5h1a1 1 0 0 0 1-1v-8a1 1 0 0 0 -1-1zm-8-30a2 2 0 0 1 4 0v4h-4zm-46 0a2 2 0 0 1 4 0v4h-4zm0 6h50v15.26a6.987 6.987 0 0 0 -4-1.26v-5a3.009 3.009 0 0 0 -3-3h-14a3.009 3.009 0 0 0 -3 3v5h-2v-5a3.009 3.009 0 0 0 -3-3h-14a3.009 3.009 0 0 0 -3 3v5a6.987 6.987 0 0 0 -4 1.26zm44 9v5h-16v-5a1 1 0 0 1 1-1h14a1 1 0 0 1 1 1zm-22 0v5h-16v-5a1 1 0 0 1 1-1h14a1 1 0 0 1 1 1zm-23 12a5 5 0 0 1 5-5h42a5 5 0 0 1 5 5v3h-52zm1.28 17h-1.28v-4h2.61zm50.72 0h-1.28l-1.33-4h2.61zm2-6h-56v-6h56z" fill="#006df0"/></svg>