<svg height="483pt" viewBox="0 -90 483.23756 483" width="483pt" xmlns="http://www.w3.org/2000/svg"><path d="m413.617188 44.191406v42l-45-6v-30zm0 0" fill="#00acea"/><path d="m223.855469 178.589844c9.433593-6.273438 21.808593-5.855469 30.796875 1.042968 8.984375 6.894532 12.585937 18.746094 8.964844 29.476563-3.625 10.734375-13.671876 17.972656-25 18.011719h-.101563c-11.675781.003906-21.976563-7.640625-25.355469-18.820313-3.375-11.179687.96875-23.25 10.695313-29.710937zm0 0" fill="#00efd1"/><path d="m93.265625 303.058594c49.238281-.058594 89.96875-38.332032 93.085937-87.46875h22.191407c4.539062 9.171875 13.050781 15.738281 23.074219 17.800781v23.199219c0 3.867187 3.132812 7 7 7 3.867187 0 7-3.132813 7-7v-23.230469c15.105468-3.273437 26.007812-16.464844 26.378906-31.917969s-9.886719-29.148437-24.820313-33.140625l113.371094-94.292969 6.945313 45.265626c-47.851563 11.886718-78.175782 58.964843-69.222657 107.449218 8.957031 48.480469 54.105469 81.617188 103.042969 75.625 48.9375-5.992187 84.757812-49.039062 81.75-98.25-3.003906-49.210937-43.792969-87.582031-93.09375-87.578125-2.902344 0-5.800781.148438-8.671875.414063l-4.386719-28.574219 35.78125 4.769531c2 .265625 4.019532-.34375 5.539063-1.671875 1.515625-1.328125 2.386719-3.25 2.386719-5.265625v-42c0-2.019531-.871094-3.9375-2.390626-5.265625-1.515624-1.332031-3.535156-1.941406-5.535156-1.671875l-42.746094 5.699219-3.140624-20.457031c-1.828126-11.890625-11.863282-20.792969-23.886719-21.191406l-35.742188-1.179688c-2.507812-.1015625-4.882812 1.152344-6.214843 3.28125-1.332032 2.128906-1.421876 4.8125-.230469 7.027344 1.1875 2.210937 3.472656 3.617187 5.984375 3.683594l35.746094 1.179687c5.289062.175781 9.703124 4.09375 10.507812 9.324219l4.742188 30.917968-152.042969 18.464844-2.851563-22.414062h27.800782c3.867187 0 7-3.132813 7-7 0-3.867188-3.132813-7-7-7h-61c-3.867188 0-7 3.132812-7 7 0 3.867187 3.132812 7 7 7h19.085937l7.59375 59.675781-37.980469 31.699219c-30.136718-29.332032-76.175781-34.871094-112.410156-13.515625-36.230469 21.355469-53.6875 64.316406-42.617188 104.890625 11.066407 40.574218 47.921876 68.722656 89.976563 68.71875zm282.351563-246.738282 31-4.136718v26.011718l-31-4.132812zm14.351562 74.199219c41.734375.042969 76.269531 32.476563 78.9375 74.128907 2.664062 41.648437-27.457031 78.21875-68.847656 83.582031s-79.839844-22.320313-87.878906-63.273438c-8.039063-40.957031 17.089843-81.121093 57.4375-91.800781l11.40625 74.355469c.367187 2.484375 2.035156 4.582031 4.375 5.496093 2.335937.917969 4.984374.511719 6.941406-1.0625 1.957031-1.574218 2.917968-4.078124 2.523437-6.554687l-11.445312-74.601563c2.175781-.175781 4.363281-.269531 6.550781-.269531zm-233.136719 31.921875c8.527344 11.433594 13.804688 24.960938 15.273438 39.148438h-62.175781zm101.175781 38.199219c-.019531 8.011719-4.933593 15.199219-12.390624 18.125v-12.175781c0-3.867188-3.132813-7-7-7-3.867188 0-7 3.132812-7 7v12.269531c-9.941407-3.773437-15.027344-14.8125-11.433594-24.816406 1.425781-3.933594 4.074218-7.304688 7.550781-9.625l.011719-.007813c5.980468-3.96875 13.660156-4.328125 19.984375-.9375 6.328125 3.394532 10.273437 9.988282 10.277343 17.167969zm83.535157-129.035156-122.050781 101.511719c-.371094.257812-.738282.523437-1.101563.796874l-10.941406-86.023437zm-139.703125 83.230469h.011718l4.601563 36.164062c-.941406 3.128906-1.421875 6.378906-1.417969 9.644531 0 .316407.027344.632813.035156.949219h-18.921874c-1.53125-17.46875-7.96875-34.148438-18.5625-48.121094l30.808593-25.71875zm-108.574219-24.316407c20.148437.011719 39.539063 7.6875 54.234375 21.472657l-61.367188 51.21875c-2.265624 1.886718-3.105468 4.992187-2.101562 7.765624 1.003906 2.769532 3.636719 4.617188 6.585938 4.613282h81.683593c-3.152343 42.90625-39.957031 75.460937-82.921875 73.355468-42.96875-2.109374-76.414062-38.105468-75.359375-81.113281 1.058594-43.003906 36.226563-77.316406 79.246094-77.3125zm0 0" fill="#083863"/></svg>