<svg height="483pt" viewBox="0 -90 483.2371 483" width="483pt" xmlns="http://www.w3.org/2000/svg"><path d="m93.265625 303.050781c49.234375-.058593 89.964844-38.332031 93.082031-87.464843h22.226563c4.574219 9.128906 13.054687 15.683593 23.042969 17.8125v23.1875c0 3.863281 3.132812 7 7 7 3.863281 0 7-3.136719 7-7v-23.234376c15.105468-3.273437 26.003906-16.464843 26.375-31.914062.367187-15.453125-9.886719-29.148438-24.820313-33.144531l113.371094-94.292969 6.945312 45.257812c-47.867187 11.875-78.222656 58.957032-69.277343 107.457032 8.941406 48.503906 54.089843 81.660156 103.046874 75.683594 48.953126-5.976563 84.796876-49.027344 81.808594-98.253907-2.992187-49.226562-43.78125-87.625-93.101562-87.632812-2.921875 0-5.816406.144531-8.671875.40625l-4.382813-28.5625 35.78125 4.769531c.304688.042969.613282.0625.925782.0625 3.863281 0 7-3.132812 7-7v-42c0-2.015625-.871094-3.9375-2.390626-5.265625-1.519531-1.328125-3.535156-1.9375-5.535156-1.671875l-42.75 5.699219-3.140625-20.460938c-1.828125-11.886719-11.863281-20.789062-23.886719-21.191406l-35.730468-1.175781c-3.84375-.0976565-7.046875 2.925781-7.171875 6.765625-.125 3.84375 2.871093 7.070312 6.710937 7.226562l35.734375 1.175781c5.289063.171876 9.707031 4.089844 10.507813 9.324219l4.746094 30.917969-152.046876 18.464844-2.847656-22.410156h27.800782c3.863281 0 7-3.136719 7-7 0-3.867188-3.136719-7-7-7h-61c-3.867188 0-7 3.132812-7 7 0 3.863281 3.132812 7 7 7h19.082031l7.597656 59.683593-38 31.71875c-30.132813-29.335937-76.171875-34.871093-112.398437-13.519531-36.226563 21.355469-53.679688 64.316406-42.609376 104.886719 11.074219 40.570312 47.929688 68.707031 89.984376 68.695312zm296.699219-172.539062c41.789062-.003907 76.410156 32.429687 79.125 74.132812 2.714844 41.699219-27.40625 78.351563-68.84375 83.765625-41.4375 5.414063-79.964844-22.269531-88.050782-63.269531-8.089843-41 17.035157-81.238281 57.425782-91.96875l11.40625 74.339844c.523437 3.414062 3.457031 5.933593 6.910156 5.9375.359375 0 .714844-.027344 1.070312-.082031 3.820313-.585938 6.445313-4.15625 5.859376-7.980469l-11.445313-74.582031c2.160156-.179688 4.339844-.292969 6.542969-.292969zm-14.347656-74.195313 31-4.132812v26.011718l-31-4.132812zm-218.800782 106.136719c8.542969 11.417969 13.832032 24.945313 15.300782 39.132813h-62.191407zm101.183594 38.179687c-.011719 8.015626-4.925781 15.203126-12.382812 18.125v-12.171874c0-3.867188-3.136719-7-7-7-3.867188 0-7 3.132812-7 7v12.242187c-9.207032-3.492187-14.355469-13.3125-11.992188-22.871094 2.359375-9.558593 11.484375-15.851562 21.261719-14.660156 9.773437 1.191406 17.121093 9.492187 17.113281 19.335937zm83.535156-129.035156-122.039062 101.507813c-.371094.257812-.742188.519531-1.101563.789062l-10.945312-86.011719zm-139.699218 83.234375h.019531l4.597656 36.167969c-.941406 3.125-1.421875 6.371094-1.417969 9.636719 0 .320312.011719.632812.023438.949219h-18.890625c-1.527344-17.46875-7.976563-34.152344-18.597657-48.105469l30.820313-25.726563zm-108.570313-24.320312c20.148437-.007813 39.539063 7.683593 54.199219 21.507812l-61.335938 51.191407c-2.261718 1.886718-3.101562 4.992187-2.097656 7.761718 1.007812 2.769532 3.636719 4.613282 6.585938 4.613282h81.683593c-3.15625 42.902343-39.960937 75.457031-82.929687 73.351562s-76.410156-38.105469-75.355469-81.113281c1.058594-43.003907 36.230469-77.316407 79.25-77.3125zm0 0"/></svg>