<?xml version="1.0" encoding="iso-8859-1"?>
<!-- Generator: Adobe Illustrator 19.0.0, SVG Export Plug-In . SVG Version: 6.00 Build 0)  -->
<svg version="1.1" id="Layer_1" xmlns="http://www.w3.org/2000/svg" xmlns:xlink="http://www.w3.org/1999/xlink" x="0px" y="0px"
	 viewBox="0 0 512 512" style="enable-background:new 0 0 512 512;" xml:space="preserve">
<g>
	<polygon style="fill:#44352D;" points="267.128,325.352 195.824,369.779 168.735,430.627 361.446,430.627 322.567,352.125 	"/>
	<polygon style="fill:#44352D;" points="267.128,325.352 195.824,369.779 168.735,430.627 361.446,430.627 322.567,352.125 	"/>
</g>
<polygon style="fill:#2D231E;" points="267.128,325.352 250.751,335.554 302.962,364.605 337.775,430.627 361.446,430.627 
	322.567,352.125 "/>
<path style="fill:#B99C80;" d="M495.26,421.296l-7.569-71.275c-0.104-0.969-0.372-1.912-0.798-2.79l-43.901-90.603l-10.508-64.137
	c-0.26-1.588-0.968-3.067-2.04-4.265L337.289,84.183c-2.659-2.971-7.035-3.674-10.49-1.689l-95.249,54.689L147.032,90.27
	c-3.676-2.04-8.293-1.063-10.83,2.292l-53.236,70.465c-0.951,1.259-1.53,2.76-1.671,4.331l-6.708,74.582l-42.104,95.346
	c-0.291,0.658-0.496,1.349-0.611,2.059l-13.213,81.491c-0.396,2.442,0.3,4.935,1.903,6.82c1.604,1.885,3.953,2.971,6.428,2.971
	h141.745c3.156,0,6.048-1.761,7.498-4.564l26.023-50.348l65.389-40.742l48.843,23.587l37.581,67.722
	c1.488,2.682,4.313,4.345,7.38,4.345h125.422c2.393,0,4.674-1.016,6.275-2.795C494.744,426.051,495.514,423.677,495.26,421.296z"/>
<g>
	<path style="fill:#A38166;" d="M495.26,421.296l-7.569-71.275c-0.104-0.969-0.372-1.912-0.798-2.79l-43.901-90.603l-10.508-64.137
		c-0.26-1.588-0.968-3.067-2.04-4.265L337.289,84.183c-2.659-2.971-7.035-3.674-10.49-1.689l-14.658,8.416l87.132,97.317
		c1.072,1.198,1.78,2.678,2.041,4.265l10.508,64.137l43.901,90.603c0.425,0.877,0.694,1.821,0.798,2.79l7.569,71.275
		c0.253,2.38-0.517,4.755-2.118,6.536c-1.6,1.779-3.881,2.795-6.275,2.795h31.171c2.393,0,4.674-1.016,6.275-2.795
		C494.744,426.051,495.514,423.677,495.26,421.296z"/>
	<path style="fill:#A38166;" d="M285.856,106.003l-54.306,31.181l-0.278-0.154c-2.222,1.486-3.793,2.522-4.452,2.903l-45.18,31.239
		c-1.548,1.071-2.695,2.629-3.255,4.427l-16.84,53.929c-1.389,4.449,1.092,9.182,5.541,10.572c0.837,0.261,1.685,0.386,2.517,0.386
		c3.594,0,6.926-2.315,8.054-5.927l15.973-51.155l42.79-29.586C239.982,151.355,282.022,114.327,285.856,106.003z"/>
	<path style="fill:#A38166;" d="M375.343,284.992c-0.798,0-1.609-0.114-2.414-0.353c-4.467-1.331-7.009-6.03-5.678-10.498
		l17.572-58.989c0.512-1.719,1.559-3.231,2.986-4.314l31.246-23.706c3.716-2.818,9.01-2.089,11.824,1.623
		c2.818,3.713,2.091,9.007-1.622,11.824l-29.047,22.036l-16.785,56.344C382.337,282.624,378.979,284.992,375.343,284.992z"/>
	<path style="fill:#A38166;" d="M90.146,239.808c-1.125-1.919-7.149-11.112-13.574-19.946l-1.986,22.079l-1.012,2.292
		c0.936,2.037,1.653,3.503,2.015,4.12l56.713,96.616c1.571,2.678,4.39,4.169,7.286,4.169c1.452,0,2.923-0.375,4.265-1.162
		c4.019-2.36,5.365-7.531,3.006-11.551L90.146,239.808z"/>
</g>
<path style="fill:#44352D;" d="M503.56,430.627H8.44c-4.661,0-8.44-3.779-8.44-8.44c0-4.661,3.779-8.44,8.44-8.44H503.56
	c4.662,0,8.44,3.779,8.44,8.44C512,426.848,508.222,430.627,503.56,430.627z"/>
<g>
</g>
<g>
</g>
<g>
</g>
<g>
</g>
<g>
</g>
<g>
</g>
<g>
</g>
<g>
</g>
<g>
</g>
<g>
</g>
<g>
</g>
<g>
</g>
<g>
</g>
<g>
</g>
<g>
</g>
</svg>
