<?xml version="1.0"?>
<svg xmlns="http://www.w3.org/2000/svg" viewBox="0 0 64 64" width="512" height="512"><g id="outline"><path d="M25,9a5.006,5.006,0,0,0-5-5h-.3L17,5.8,14.117,3.876,8.969,5.936,2,3.613V62H62V43H25ZM4,6.387,8,7.721V11.5l4,3V19h2V13.5l-4-3V7.677l3.883-1.553L16,7.535v3.879l2,2v8.968l-4,2V30h2V25.618l4-2V12.586l-2-2V7.535l2.283-1.522A3,3,0,0,1,23,9V43H14V38a3,3,0,0,0-3-3H10V17a3,3,0,0,0-3-3H4ZM4,16H7a1,1,0,0,1,1,1V35H4ZM4,37H8v2h2V37h1a1,1,0,0,1,1,1v5H4ZM60,60H4V49.222A5.141,5.141,0,0,1,5.671,51.06C6.556,52.37,7.657,54,10,54c2.266,0,3.587-1.51,4.752-2.841C15.766,50,16.642,49,18,49c1.221,0,1.783.744,2.671,2.06S22.657,54,25,54s3.444-1.63,4.329-2.94S30.779,49,32,49s1.784.744,2.671,2.06S36.655,54,39,54c2.266,0,3.587-1.51,4.752-2.841C44.766,50,45.642,49,47,49c1.222,0,1.784.744,2.671,2.059S51.655,54,54,54s3.445-1.63,4.329-2.941A5.127,5.127,0,0,1,60,49.222Zm0-15v2.122a5.74,5.74,0,0,0-3.329,2.819C55.784,51.256,55.222,52,54,52s-1.784-.744-2.671-2.059S49.345,47,47,47c-2.266,0-3.587,1.51-4.752,2.841C41.234,51,40.358,52,39,52c-1.222,0-1.784-.744-2.671-2.06S34.345,47,32,47s-3.444,1.63-4.329,2.94S26.221,52,25,52s-1.783-.744-2.671-2.06S20.343,47,18,47c-2.266,0-3.587,1.51-4.752,2.841C12.234,51,11.358,52,10,52c-1.221,0-1.783-.744-2.671-2.06A5.746,5.746,0,0,0,4,47.123V45Z"/><rect x="18" y="26" width="2" height="7"/><rect x="21" y="56" width="4" height="2"/><rect x="30" y="53" width="4" height="2"/><rect x="38" y="56" width="4" height="2"/><rect x="45" y="53" width="4" height="2"/><rect x="13" y="55" width="4" height="2"/><path d="M40.707,25.707l-1.414-1.414L37,26.586l-2.293-2.293-1.414,1.414L36,28.414v2.2l-1.684-.561-.632,1.9L36,32.721V34H35a1,1,0,0,0-1,1v4a1,1,0,0,0,1,1h4a1,1,0,0,0,1-1V35a1,1,0,0,0-1-1H38V32.721l2.316-.772-.632-1.9L38,30.612v-2.2ZM38,38H36V36h2Z"/><path d="M51.707,19.707l-1.414-1.414L48,20.586l-2.293-2.293-1.414,1.414L47,22.414v2.2l-1.684-.561-.632,1.9L47,26.721V28H46a1,1,0,0,0-1,1v4a1,1,0,0,0,1,1h4a1,1,0,0,0,1-1V29a1,1,0,0,0-1-1H49V26.721l2.316-.772-.632-1.9L49,24.612v-2.2ZM49,32H47V30h2Z"/><rect x="40" y="9" width="2" height="10"/><rect x="36" y="12" width="2" height="10"/><rect x="44" y="7" width="2" height="10"/></g></svg>
