<svg height="503pt" viewBox="-88 0 503 503.89163" width="503pt" xmlns="http://www.w3.org/2000/svg"><path d="m50.605469 296.421875c9.398437 15.28125 18.980469 31.445313 28.242187 47.074219v.003906c1.257813 2.121094 3.535156 3.425781 6 3.433594l64.683594.015625-37.96875 43.941406h-10.777344c-3.867187 0-6.628906 3.589844-6.628906 7.453125v98.441406c0 3.863282 2.761719 7.105469 6.628906 7.105469h126.746094c3.863281 0 6.625-3.242187 6.625-7.105469v-98.441406c0-3.863281-2.761719-7.453125-6.625-7.453125h-10.773438l-37.875-43.648437 63.4375.648437h.027344c2.472656-.074219 4.734375-1.414063 5.980469-3.550781 5.03125-8.285156 10.140625-16.941406 15.078125-25.222656 4.921875-8.246094 10-16.820313 15.011719-25.0625 19.917969-33.007813 42.492187-70.4375 48.125-113 6.730469-50.785157-12.644531-103.96875-50.582031-138.800782-34.015626-31.027344-80.945313-46.125-128.757813-41.402344-46.914063 4.628907-89.097656 28.039063-115.773437 64.285157-24.300782 33.648437-35.078126 76.113281-29.574219 116.46875 5.59375 42.890625 28.5 81.066406 48.75 114.816406zm57.550781 193.46875v-16h112v16zm112-30h-112v-55h112zm-90.132812-69 34.132812-39.707031 34.132812 39.707031zm121.355468-79.039063c-4.253906 7.136719-8.636718 14.476563-12.972656 21.65625l-149.535156-.558593c-8.660156-14.613281-17.558594-29.589844-26.300782-43.800781-3.839843-6.398438-7.78125-12.972657-11.675781-19.699219 4.253907 2.753906 9.234375 4.183593 14.300781 4.097656 11.0625 0 16.992188-5.769531 21.320313-9.980469 3.71875-3.625 6.175781-6.019531 11.550781-6.019531 5.371094 0 7.832032 2.394531 11.554688 6.019531 4.328125 4.210938 10.257812 9.980469 21.320312 9.980469s16.992188-5.769531 21.320313-9.980469c3.71875-3.625 6.179687-6.019531 11.554687-6.019531s7.832032 2.394531 11.554688 6.019531c4.328125 4.210938 10.257812 9.980469 21.320312 9.980469s16.992188-5.769531 21.320313-9.980469c3.722656-3.625 6.179687-6.019531 11.554687-6.019531s7.835938 2.394531 11.558594 6.019531c4.328125 4.210938 10.257812 9.980469 21.320312 9.980469 5.089844.085937 10.085938-1.351563 14.351563-4.125-3.464844 5.910156-6.953125 11.695313-10.359375 17.339844-5.027344 8.273437-10.125 16.824219-15.058594 25.089843zm-14.253906-131.597656c-1.492188 23.347656-6.042969 44.953125-10.613281 63.460938-9.128907.949218-14.359375 6.011718-18.269531 9.816406-3.71875 3.621094-6.179688 6.015625-11.554688 6.015625-5.371094 0-7.707031-2.394531-11.425781-6.015625-3.296875-3.207031-8.101563-7.308594-14.101563-9.089844v-229.339844c16 3.925782 31.214844 17.175782 43.371094 38.65625 17.195312 31.566407 25.992188 81.183594 22.59375 126.492188zm-79.96875-165.152344v229.300782c-7 1.753906-11.214844 5.898437-14.535156 9.132812-3.722656 3.621094-6.246094 6.015625-11.621094 6.015625s-7.863281-2.394531-11.585938-6.015625c-3.882812-3.78125-9.085937-8.800781-18.097656-9.800781-4.578125-18.539063-9.136718-40.160156-10.632812-63.558594-3.390625-45.234375 5.652344-94.851562 22.855468-126.417969 12.152344-21.480468 26.617188-34.730468 43.617188-38.65625zm155.5 164.089844c-3.015625 22.800782-11.5 44.40625-21.800781 64.707032-8.261719 1.292968-13.148438 6.027343-16.855469 9.632812-3.722656 3.625-6.179688 6.015625-11.558594 6.015625-5.375 0-7.832031-2.390625-11.554687-6.015625-2.632813-2.558594-5.859375-5.6875-10.464844-7.753906 4.613281-18.832032 9.148437-40.75 10.667969-64.554688 3.582031-47.761718-6.007813-100.441406-24.425782-134.210937l-.050781-.09375c-6.664062-11.789063-13.714843-20.691407-20.753906-27.398438 22.550781 6.050781 43.335937 17.382813 60.644531 33.054688 34.609375 31.765625 52.296875 80.285156 46.152344 126.617187zm-269.914062-105.808594c19.078124-25.921874 46.96875-44.65625 78.878906-53.558593-8.085938 7.992187-14.964844 17.121093-20.429688 27.089843-.015625.03125-.035156.0625-.050781.09375-18.421875 33.769532-28.007813 86.453126-24.433594 134.136719 1.523438 23.8125 6.046875 45.71875 10.65625 64.558594-4.6875 2.066406-7.957031 5.238281-10.617187 7.828125-3.722656 3.621094-6.179688 6.015625-11.554688 6.015625-5.371094 0-7.828125-2.394531-11.550781-6.015625-3.667969-3.570312-8.5-8.246094-16.609375-9.59375-10.121094-20.257812-18.371094-41.71875-21.300781-64.1875-5.027344-36.867188 4.832031-75.660156 27.011719-106.367188zm0 0"/></svg>