<svg height="503pt" viewBox="-88 0 503 503.88299" width="503pt" xmlns="http://www.w3.org/2000/svg"><path d="m271.230469 47.402344c35.980469 33.03125 54.847656 83.75 48.359375 132.699218-3.289063 24.882813-12.71875 48.171876-24.320313 70.429688-16.390625.03125-16.410156 16-32.832031 16-15.589844 0-16.398438-14.386719-30.457031-15.878906 5.660156-22.28125 10.539062-45.167969 12.117187-69.960938 3.542969-47.179687-5.886718-97.898437-23.589844-130.339844-15.328124-27.128906-34.199218-40.6875-53.667968-43.097656h-5.890625v-.222656c39.640625-.808594 79.671875 12.441406 110.28125 40.371094zm0 0" fill="#00acea"/><path d="m95.800781 250.644531c.71875-.070312 1.46875-.113281 2.257813-.113281 16.429687 0 16.429687 16 32.871094 16 16.441406 0 16.441406-16 32.878906-16h.089844c16.339843.0625 16.371093 16 32.78125 16 16.441406 0 16.441406-16 32.878906-16 .808594 0 1.617187.039062 2.421875.121094 14.058593 1.492187 14.867187 15.878906 30.457031 15.878906 16.421875 0 16.441406-15.96875 32.832031-16-7.101562 13.632812-15.019531 26.871094-22.859375 39.851562-10.019531 16.511719-20.050781 33.621094-30.082031 50.128907l-157.457031-.589844c-9.441406-15.917969-18.871094-31.847656-28.3125-47.179687-8.328125-13.898438-16.667969-27.878907-24.03125-42.210938 16.222656.140625 16.292968 16 32.660156 16 15.640625 0 16.390625-14.5 30.613281-15.886719zm0 0" fill="#00efd1"/><path d="m220.507812 50.351562c17.703126 32.441407 27.132813 83.160157 23.589844 130.339844-1.578125 24.792969-6.457031 47.679688-12.117187 69.960938-.804688-.082032-1.613281-.121094-2.421875-.121094-16.4375 0-16.4375 16-32.878906 16-16.410157 0-16.441407-15.9375-32.78125-16v-243.277344h2.941406c19.46875 2.410156 38.339844 15.96875 53.667968 43.097656zm0 0" fill="#f4b844"/><path d="m100.777344 466.773438h126.742187v30h-126.742187zm0 0" fill="#00efd1"/><path d="m227.519531 398.332031v68.441407h-126.742187v-68.441407zm0 0" fill="#00acea"/><path d="m163.898438 7.351562v243.179688h-.089844c-16.4375 0-16.4375 16-32.878906 16-16.441407 0-16.441407-16-32.871094-16-.789063 0-1.539063.042969-2.257813.113281-5.652343-22.28125-10.53125-45.171875-12.113281-69.953125-3.539062-47.179687 5.902344-97.898437 23.589844-130.339844 15.332031-27.128906 34.203125-40.6875 53.671875-43.097656h2.949219zm0 0" fill="#fedb41"/><path d="m160.949219 7.03125v.222656c-19.46875 2.410156-38.339844 15.96875-53.671875 43.097656-17.6875 32.441407-27.128906 83.160157-23.589844 130.339844 1.582031 24.78125 6.460938 47.671875 12.113281 69.953125-14.222656 1.386719-14.972656 15.886719-30.613281 15.886719-16.367188 0-16.4375-15.859375-32.660156-16-11.417969-22.148438-20.507813-45.128906-23.738282-69.839844-5.308593-38.929687 5.308594-79.617187 28.308594-111.46875 29.550782-40.148437 76.429688-61.230468 123.851563-62.191406zm0 0" fill="#00acea"/><path d="m26.300781 253.730469c7.691407 14.972656 16.492188 29.65625 24.300781 42.683593 9.011719 14.632813 18.1875 30.105469 27.058594 45.066407l1.191406 2.011719c1.257813 2.117187 3.53125 3.421874 5.996094 3.429687l64.683594.019531-37.972656 43.941406h-10.78125c-3.863282 0-6.628906 3.585938-6.628906 7.449219v98.441407c0 3.867187 2.765624 7.109374 6.628906 7.109374h126.742187c3.867188 0 6.628907-3.242187 6.628907-7.109374v-98.441407c0-3.863281-2.761719-7.449219-6.628907-7.449219h-10.78125l-37.871093-43.648437 63.4375.648437h.023437c2.472656-.074218 4.734375-1.414062 5.984375-3.550781 5.097656-8.398437 10.277344-17.167969 15.285156-25.5625 4.851563-8.136719 9.871094-16.59375 14.800782-24.722656 8.109374-13.425781 15.976562-26.628906 23.074218-40.257813 14.109375-27.070312 22.070313-50.199218 25.050782-72.753906 6.734374-50.789062-12.640626-103.96875-50.582032-138.800781-30.792968-28.097656-71.683594-43.082031-115.132812-42.1992188-24.804688.4843748-49.214844 6.3164058-71.554688 17.1054688-22.90625 11.03125-42.761718 27.507813-57.828125 47.984375-24.304687 33.65625-35.078125 76.121094-29.578125 116.476562 2.953125 22.574219 10.722656 45.496094 24.453125 72.128907zm81.847657 236.152343v-16h112v16zm112-30h-112v-55h112zm-90.128907-69 34.128907-39.699218 34.128906 39.699218zm121.554688-79.378906c-4.320313 7.246094-8.773438 14.699219-13.179688 21.992188l-149.53125-.558594c-8.640625-14.574219-17.550781-29.585938-26.296875-43.792969-3.730468-6.222656-7.703125-12.851562-11.65625-19.699219 4.25 2.746094 9.222656 4.167969 14.28125 4.085938 11.058594 0 16.984375-5.769531 21.308594-9.980469 3.726562-3.628906 5.863281-5.542969 9.976562-5.945312.535157-.050781 1.054688-.074219 1.585938-.074219 5.367188 0 7.824219 2.390625 11.546875 6.011719 4.328125 4.214843 10.253906 9.988281 21.320313 9.988281 11.066406 0 16.996093-5.773438 21.324218-9.984375 3.722656-3.625 6.179688-6.015625 11.621094-6.015625 5.324219.019531 7.773438 2.398438 11.480469 6.011719 4.332031 4.214843 10.257812 9.988281 21.324219 9.988281 11.066406 0 16.996093-5.773438 21.324218-9.984375 3.722656-3.625 6.179688-6.015625 11.558594-6.015625.5625-.003906 1.121094.023438 1.683594.078125 4.046875.429687 6.167968 2.332031 9.871094 5.933594 4.328124 4.214843 10.261718 9.988281 21.324218 9.988281 5.070313.082031 10.054688-1.34375 14.3125-4.101562-3.363281 5.757812-6.808594 11.53125-10.328125 17.324218-4.953125 8.15625-9.984375 16.59375-14.851562 24.75zm-14.460938-131.257812c-1.488281 23.371094-6.042969 44.964844-10.609375 63.457031-9.125.945313-14.355468 6.007813-18.265625 9.8125-3.722656 3.625-6.183593 6.015625-11.558593 6.015625s-7.710938-2.390625-11.433594-6.015625c-3.289063-3.199219-8.101563-7.300781-14.101563-9.085937v-229.332032c16 3.925782 31.222657 17.175782 43.367188 38.65625 17.207031 31.558594 26 81.171875 22.601562 126.492188zm-79.964843-165.148438v229.285156c-7 1.753907-11.210938 5.898438-14.535157 9.132813-3.722656 3.621094-6.246093 6.015625-11.621093 6.015625s-7.867188-2.394531-11.589844-6.015625c-3.882813-3.78125-9.085938-8.800781-18.097656-9.800781-4.570313-18.519532-9.128907-40.136719-10.625-63.550782-3.390626-45.226562 5.648437-94.839843 22.851562-126.417968 12.144531-21.476563 26.617188-34.726563 43.617188-38.648438zm155.5 164.085938c-2.636719 19.949218-9.605469 40.597656-21.84375 64.699218-8.234376 1.300782-13.113282 6.027344-16.808594 9.628907-3.722656 3.621093-6.183594 6.015625-11.558594 6.015625-5.371094 0-7.835938-2.394532-11.558594-6.019532-2.730468-2.65625-5.914062-5.742187-10.460937-7.777343 4.613281-18.8125 9.144531-40.707031 10.660156-64.519531 3.585937-47.769532-6-100.453126-24.425781-134.21875l-.050782-.089844c-6.679687-11.820313-13.753906-20.742188-20.8125-27.460938 22.585938 6.042969 43.398438 17.398438 60.707032 33.117188 34.609375 31.773437 52.296875 80.292968 46.152344 126.625zm-269.910157-105.8125c13.722657-18.628906 31.800781-33.613282 52.652344-43.648438 8.414063-4.085937 17.183594-7.394531 26.199219-9.886718-8.074219 7.988281-14.949219 17.109374-20.410156 27.074218l-.050782.09375c-18.417968 33.777344-28.003906 86.460938-24.429687 134.132813 1.519531 23.824219 6.042969 45.714843 10.644531 64.535156-4.625 2.03125-7.851562 5.160156-10.613281 7.847656-3.71875 3.621094-6.175781 6.011719-11.542969 6.011719-5.371094 0-7.839844-2.390625-11.558594-6.015625-3.65625-3.558594-8.476562-8.226563-16.601562-9.585937-11.894532-23.699219-18.691406-44.175782-21.308594-64.183594-5.023438-36.863282 4.835938-75.65625 27.019531-106.375zm0 0" fill="#083863"/></svg>