<svg id="Layer_2" height="512" viewBox="0 0 128 128" width="512" xmlns="http://www.w3.org/2000/svg" data-name="Layer 2"><path d="m88.019 11.758-15.891 18.117-8.128-8.125-8.128 8.125-15.891-18.117-10.481 4.485v99.999h69v-99.999z" fill="#4695bc"/><path d="m77.511 1.75h-27.022l13.511 20z" fill="#515a5e"/><path d="m64 21.75-13.511-20-10.508 10.008 15.891 18.117z" fill="#fee372"/><path d="m72.128 29.875 15.891-18.117-10.508-10.008-13.511 20z" fill="#fee372"/><path d="m62.25 23.499v92.743h3.5v-92.743l-1.75-1.749z" fill="#0e708e"/><path d="m34.25 116.242h59.5v10.008h-59.5z" fill="#fee372"/><path d="m29.5 16.243-17.833 9.924v78.833h17.833z" fill="#0e708e"/><path d="m11.667 95.5h17.833v9.5h-17.833z" fill="#fee372"/><path d="m98.5 16.243 17.833 9.924v78.833h-17.833z" fill="#0e708e"/><path d="m98.5 95.5h17.833v9.5h-17.833z" fill="#fee372" transform="matrix(-1 0 0 -1 214.833 200.5)"/><g fill="#0e708e"><path d="m91 105.375a1.749 1.749 0 0 1 -1.586-1.009l-8.122-17.375a1.75 1.75 0 0 1 3.171-1.482l8.125 17.375a1.75 1.75 0 0 1 -1.588 2.491z"/><path d="m37 105.375a1.75 1.75 0 0 1 -1.585-2.491l8.125-17.375a1.75 1.75 0 0 1 3.171 1.482l-8.125 17.375a1.749 1.749 0 0 1 -1.586 1.009z"/><path d="m72 41.833h-1.167a1.75 1.75 0 0 1 0-3.5h1.167a1.75 1.75 0 0 1 0 3.5z"/><path d="m72 52.583h-1.167a1.75 1.75 0 0 1 0-3.5h1.167a1.75 1.75 0 0 1 0 3.5z"/><path d="m72 63.333h-1.167a1.75 1.75 0 0 1 0-3.5h1.167a1.75 1.75 0 0 1 0 3.5z"/><path d="m72 74.083h-1.167a1.75 1.75 0 0 1 0-3.5h1.167a1.75 1.75 0 0 1 0 3.5z"/><path d="m72 84.833h-1.167a1.75 1.75 0 0 1 0-3.5h1.167a1.75 1.75 0 0 1 0 3.5z"/><path d="m72 95.583h-1.167a1.75 1.75 0 0 1 0-3.5h1.167a1.75 1.75 0 0 1 0 3.5z"/><path d="m72 106.333h-1.167a1.75 1.75 0 0 1 0-3.5h1.167a1.75 1.75 0 0 1 0 3.5z"/></g></svg>