<?xml version="1.0" encoding="iso-8859-1"?>
<!-- Generator: Adobe Illustrator 19.0.0, SVG Export Plug-In . SVG Version: 6.00 Build 0)  -->
<svg version="1.1" id="Layer_1" xmlns="http://www.w3.org/2000/svg" xmlns:xlink="http://www.w3.org/1999/xlink" x="0px" y="0px"
	 viewBox="0 0 512 512" style="enable-background:new 0 0 512 512;" xml:space="preserve">
<g>
	<g>
		<path d="M509.702,345.703c-35.422-58.565-4.192-6.923-134.797-222.903c-13.37,50.755-83,117.865-102.986,124.918v36.076
			c0,8.791-7.127,15.918-15.918,15.918c-8.791,0-15.918-7.127-15.918-15.918v-36.075c-20.161-7.115-89.637-74.327-102.989-124.916
			C15.286,324.235,40.567,282.433,2.299,345.703c-4.617,7.633-2.053,17.57,5.662,22.024l69.425,40.082
			c7.596,4.386,17.343,1.801,21.746-5.828c32.526-56.351,21.232-36.784,36.199-62.712v84.684c0,8.081,6.027,14.739,13.828,15.766
			v33.833c0,8.791,7.127,15.918,15.918,15.918h181.846c8.791,0,15.918-7.127,15.918-15.918v-33.832
			c7.806-1.021,13.838-7.682,13.838-15.767v-84.665c12.898,22.344,8.254,14.299,36.189,62.694
			c4.41,7.641,14.164,10.206,21.746,5.828l69.425-40.082C511.766,363.266,514.312,353.325,509.702,345.703z M79.517,372.278
			l-41.568-24l7.461-12.337l41.315,23.85L79.517,372.278z M331.005,457.634H180.995v-17.762h150.009V457.634z M432.484,372.278
			l-7.208-12.487l41.315-23.85l7.461,12.337L432.484,372.278z"/>
	</g>
</g>
<g>
	<g>
		<path d="M255.999,22.531c-73.184,0-105.009,54.718-84.297,103.26c17.816,41.739,71.762,87.198,74.049,89.112
			c5.941,4.972,14.605,4.932,20.497,0c2.288-1.914,56.234-47.374,74.048-89.112c0,0,0-0.001,0.001-0.002
			C360.978,77.319,329.115,22.531,255.999,22.531z M255.962,178.362c-17.953-22.405-27.515-42.832-27.515-52.468
			c0-21.86,14.852-29.616,27.571-29.616c12.703,0,27.537,7.756,27.537,29.616C283.554,138.211,270.762,159.772,255.962,178.362z"/>
	</g>
</g>
<g>
</g>
<g>
</g>
<g>
</g>
<g>
</g>
<g>
</g>
<g>
</g>
<g>
</g>
<g>
</g>
<g>
</g>
<g>
</g>
<g>
</g>
<g>
</g>
<g>
</g>
<g>
</g>
<g>
</g>
</svg>
