<?xml version="1.0" encoding="iso-8859-1"?>
<!-- Generator: Adobe Illustrator 19.0.0, SVG Export Plug-In . SVG Version: 6.00 Build 0)  -->
<svg version="1.1" id="Layer_1" xmlns="http://www.w3.org/2000/svg" xmlns:xlink="http://www.w3.org/1999/xlink" x="0px" y="0px"
	 viewBox="0 0 512.002 512.002" style="enable-background:new 0 0 512.002 512.002;" xml:space="preserve">
<g>
	<g>
		<path d="M509.774,388.72l-19.585-19.585l20.31-27.871c1.685-2.312,1.929-5.375,0.632-7.925c-1.297-2.551-3.915-4.156-6.777-4.156
			H359.982l9.435-34.975l9.258-0.228c3.097-0.076,5.838-2.024,6.929-4.923l13.934-37.027c0.903-2.4,0.535-5.091-0.976-7.161
			c-1.513-2.071-3.973-3.251-6.525-3.109l-8.512,0.431l21.593-77.853c14.257-3.012,25.925-13.392,30.414-27.52l0.203-0.642
			c0.206-0.656,0.41-1.313,0.644-1.96l20.101-55.696c0.723-2.003,0.572-4.217-0.414-6.104c-0.987-1.887-2.721-3.273-4.778-3.823
			l-73.959-19.731c-2.051-0.547-4.24-0.211-6.034,0.927c-1.794,1.138-3.029,2.975-3.407,5.066l-10.516,58.106
			c-0.122,0.675-0.275,1.343-0.424,2.011l-0.15,0.671c-3.157,14.268,1.599,28.985,12.166,38.75l-24.867,89.796l-0.031,0.002h-0.001
			l-65.278,3.055l-14.807-29.198c1.038-9.604-1.416-19.169-7.048-27.193c-4.366-6.221-10.254-10.957-17.052-13.842l2.664-18.641
			c12.211-0.812,22.105-10.771,22.556-23.262l1.789-49.755c0.232-6.439-2.069-12.596-6.48-17.337
			c-4.412-4.739-10.386-7.478-16.827-7.71l-28.409-1.022c-13.369-0.465-24.567,9.977-25.045,23.307l-1.79,49.756
			c-0.281,7.8,3.186,14.879,8.778,19.509l-3.884,21.346c-8.912,4.05-15.753,12.278-17.567,22.625l-22.879,130.565
			c-0.167,0.954-0.141,1.897,0.038,2.793H82.514l-45.61-15.878c-2.539-0.885-5.356-0.361-7.409,1.374l-19.281,16.301
			c-2.194,1.855-3.155,4.787-2.485,7.58l8.639,36.016L2.226,388.72C0.801,390.145,0,392.08,0,394.096v61.698
			c0,3.076,1.852,5.847,4.694,7.024c2.842,1.177,6.111,0.527,8.287-1.648l31.227-31.228c6.822-6.821,15.89-10.577,25.535-10.577
			c9.646,0,18.713,3.756,25.538,10.581l0.315,0.314c9.693,9.693,22.579,15.03,36.286,15.03s26.594-5.338,36.282-15.026l0.323-0.322
			c6.821-6.821,15.888-10.577,25.534-10.577c9.645,0,18.713,3.756,25.534,10.577l0.238,0.238
			c9.695,9.695,22.578,15.031,36.285,15.03c0.022,0,0.046,0,0.068,0c13.733-0.018,26.629-5.388,36.312-15.124
			c6.817-6.85,15.892-10.629,25.555-10.643c0.016,0,0.03,0,0.047,0c9.645,0,18.711,3.755,25.537,10.582l0.233,0.233
			c9.693,9.693,22.579,15.03,36.287,15.03c13.707,0,26.593-5.338,36.291-15.034l0.314-0.314
			c6.821-6.821,15.889-10.577,25.534-10.577c9.646,0,18.713,3.756,25.534,10.577l31.229,31.228c1.456,1.455,3.4,2.227,5.379,2.227
			c0.979,0,1.967-0.19,2.908-0.579c2.842-1.177,4.694-3.95,4.694-7.024v-61.696C512,392.08,511.199,390.145,509.774,388.72z
			 M489.405,344.39l-10.1,13.86l-0.76-0.759c-6.304-6.304-13.963-10.751-22.316-13.101H489.405z M428.288,344.39
			c-8.354,2.35-16.017,6.799-22.325,13.109l-0.309,0.31c-14.08,14.079-36.99,14.078-51.074-0.005l-0.233-0.233
			c-6.377-6.377-14.138-10.854-22.6-13.18h18.285v-0.001c0.01,0,0.02,0.002,0.03,0.002c0.008,0,0.016-0.002,0.024-0.002H428.288z
			 M371.649,118.925l0.139-0.622c0.197-0.877,0.392-1.755,0.552-2.638l9.046-49.984l57.982,15.469l-17.289,47.904
			c-0.305,0.844-0.576,1.701-0.846,2.559l-0.189,0.597c-1.89,5.947-5.814,10.83-10.889,13.978l2.175-7.84
			c2.685-9.986-3.252-20.296-13.239-22.982c-9.985-2.685-20.296,3.252-22.968,13.185l-2.147,7.753
			C371.233,131.064,370.32,124.931,371.649,118.925z M390.791,132.555c0.5-1.857,2.491-3.006,4.349-2.505
			c1.857,0.5,3.004,2.491,2.519,4.291l-30.139,108.66l-7.419,0.376L390.791,132.555z M373.614,257.918
			c0.009,0,0.018-0.001,0.027-0.001l7.58-0.383l-8.044,21.37l-19.954,0.492l-0.879-20.401L373.614,257.918z M346.162,294.782
			l0.071-0.003l7.329-0.18l-9.33,34.585h-7.35L346.162,294.782z M205.326,83.134c0.179-4.95,4.343-8.826,9.303-8.657l28.409,1.022
			c2.163,0.078,4.186,0.935,5.771,2.415c-12.257,13.327-32.472,19.961-44.118,22.834L205.326,83.134z M204.127,116.51
			c10.253-2.19,30.899-7.862,47.161-20.376l-1.382,38.424c-0.178,4.95-4.315,8.846-9.302,8.657l-28.41-1.022
			c-0.955-0.034-1.867-0.22-2.721-0.528c-0.461-0.282-0.958-0.514-1.484-0.694c-2.762-1.619-4.573-4.663-4.451-8.08L204.127,116.51z
			 M227.245,157.95l-2.201,15.4l-13.885-2.433c-0.669-0.118-1.336-0.204-2.002-0.276l2.412-13.256c0.026,0,0.052,0.003,0.078,0.004
			L227.245,157.95z M167.768,329.015l22.879-130.565c1.47-8.392,9.496-14.023,17.888-12.554l19.993,3.505
			c13.448,2.356,22.469,15.213,20.113,28.659c-0.01,0.056-0.012,0.111-0.02,0.165c-0.022,0.144-0.04,0.288-0.054,0.432
			c-0.01,0.109-0.019,0.216-0.025,0.324c-0.007,0.139-0.009,0.278-0.009,0.418c0,0.115,0.002,0.228,0.007,0.342
			c0.006,0.131,0.017,0.261,0.03,0.39c0.012,0.121,0.025,0.24,0.043,0.36c0.018,0.122,0.042,0.243,0.065,0.365
			c0.025,0.126,0.052,0.25,0.083,0.374c0.028,0.114,0.062,0.225,0.095,0.338c0.039,0.13,0.081,0.259,0.127,0.385
			c0.039,0.105,0.079,0.21,0.123,0.314c0.054,0.131,0.112,0.26,0.172,0.386c0.025,0.053,0.044,0.105,0.07,0.158l18.102,35.695
			c1.354,2.669,4.157,4.292,7.137,4.156l62.567-2.928l0.87,20.201l-74.127,3.42l-51.748-71.386c-2.466-3.4-7.221-4.158-10.618-1.693
			c-3.4,2.464-4.159,7.219-1.694,10.618l38.902,53.665l-9.573,54.624h-61.436C167.743,329.126,167.758,329.072,167.768,329.015z
			 M244.605,329.183l6.567-37.473l2.694,3.716c1.001,1.381,2.427,2.372,4.036,2.84c0.829,0.302,1.711,0.461,2.606,0.461
			c0.116,0,0.233-0.002,0.351-0.008l69.354-3.201l-9.036,33.494c-0.015,0.057-0.023,0.115-0.038,0.171H244.605z M304.372,344.391
			c-8.506,2.339-16.301,6.848-22.693,13.273c-6.815,6.85-15.889,10.629-25.552,10.643c-0.016,0-0.031,0-0.048,0
			c-9.645,0-18.711-3.756-25.528-10.571l-0.243-0.244c-6.305-6.304-13.964-10.751-22.317-13.101H304.372z M180.05,344.39
			c-8.354,2.349-16.013,6.797-22.316,13.101l-0.318,0.318c-14.077,14.079-36.988,14.08-51.067,0l-0.318-0.318
			c-6.304-6.304-13.963-10.751-22.316-13.101H180.05z M36.001,329.093l39.262,13.668c-1.822-0.194-3.663-0.3-5.521-0.3
			c-13.707,0-26.593,5.338-36.287,15.03l-4.473,4.473l-5.372-22.395L36.001,329.093z M496.793,437.438l-18.249-18.249
			c-9.693-9.693-22.579-15.03-36.287-15.03c-13.707,0-26.593,5.338-36.291,15.034l-0.313,0.314
			c-6.822,6.821-15.89,10.577-25.535,10.577c-9.646,0-18.713-3.756-25.539-10.582l-0.233-0.233
			c-9.695-9.695-22.578-15.03-36.284-15.03c-0.021,0-0.046,0-0.067,0c-13.733,0.018-26.63,5.388-36.315,15.124
			c-6.815,6.85-15.889,10.629-25.552,10.643c-0.016,0-0.031,0-0.049,0c-9.644,0-18.71-3.755-25.532-10.577l-0.238-0.238
			c-9.694-9.693-22.58-15.03-36.287-15.03s-26.594,5.338-36.282,15.026l-0.323,0.322c-6.821,6.821-15.888,10.577-25.534,10.577
			c-9.645,0-18.713-3.756-25.538-10.581l-0.314-0.314c-9.693-9.693-22.579-15.03-36.287-15.03c-13.707,0-26.593,5.338-36.287,15.03
			l-18.248,18.248v-40.192l29-29.002c6.822-6.821,15.89-10.577,25.535-10.577c9.646,0,18.713,3.756,25.534,10.577l0.319,0.319
			c20.009,20.008,52.566,20.007,72.573,0l0.318-0.318c6.821-6.821,15.888-10.577,25.534-10.577c9.645,0,18.713,3.756,25.529,10.571
			l0.244,0.244c9.695,9.695,22.578,15.03,36.284,15.03c0.022,0,0.046,0,0.068,0c13.733-0.018,26.629-5.389,36.312-15.124
			c6.817-6.85,15.892-10.63,25.555-10.643c0.016,0,0.03,0,0.047,0c9.645,0,18.711,3.755,25.537,10.582l0.233,0.233
			c20.009,20.009,52.565,20.007,72.582-0.008l0.31-0.31c6.821-6.821,15.889-10.577,25.534-10.577
			c9.646,0,18.713,3.756,25.534,10.577l29.002,29.002V437.438z"/>
	</g>
</g>
<g>
</g>
<g>
</g>
<g>
</g>
<g>
</g>
<g>
</g>
<g>
</g>
<g>
</g>
<g>
</g>
<g>
</g>
<g>
</g>
<g>
</g>
<g>
</g>
<g>
</g>
<g>
</g>
<g>
</g>
</svg>
