<?xml version="1.0" encoding="iso-8859-1"?>
<!-- Generator: Adobe Illustrator 19.0.0, SVG Export Plug-In . SVG Version: 6.00 Build 0)  -->
<svg version="1.1" id="Layer_1" xmlns="http://www.w3.org/2000/svg" xmlns:xlink="http://www.w3.org/1999/xlink" x="0px" y="0px"
	 viewBox="0 0 512.002 512.002" style="enable-background:new 0 0 512.002 512.002;" xml:space="preserve">
<path style="fill:#2B5448;" d="M377.089,151.273c-10.39-7.576-15.779-20.817-12.864-33.991c0.219-0.989,0.452-1.976,0.633-2.972
	l10.515-58.104l73.959,19.731l-20.101,55.696c-0.343,0.95-0.635,1.916-0.941,2.878c-4.134,13.011-15.656,21.815-28.63,22.998"/>
<path style="fill:#3F8E50;" d="M363.438,287.18l-17.49,65.78l-21.538-5.794l15.926-59.986l9.625-35.679l33.487-120.923
	c1.594-5.922,7.743-9.465,13.666-7.872l0,0c5.922,1.594,9.465,7.743,7.872,13.666l-31.604,113.943L363.438,287.18z"/>
<polygon style="fill:#FFD6CF;" points="229.747,192.028 235.967,150.667 205.52,148.153 198.61,186.733 "/>
<g style="opacity:0.32;">
	<polygon style="fill:#831232;" points="235.967,150.667 205.52,148.153 201.591,170.091 233.046,170.091 	"/>
</g>
<polygon style="fill:#836F5A;" points="480.214,369.913 504.354,336.786 81.228,336.786 34.404,320.486 15.124,336.786 
	24.756,376.943 100.875,394.125 465.612,394.125 "/>
<polygon style="fill:#725B4B;" points="480.214,347.166 465.612,371.378 100.875,371.378 24.755,354.196 19.723,333.214 
	15.124,337.103 24.755,377.258 100.875,394.44 465.612,394.44 480.214,370.229 504.354,337.103 487.548,337.103 "/>
<g>
	<path style="fill:#9AD8AF;" d="M157.31,336.786l25.848-139.649c2.189-12.491,14.199-20.919,26.69-18.731l19.993,3.504
		c17.531,3.072,29.362,19.93,26.289,37.461l-9.346,53.331l-11.231,64.085H157.31V336.786z"/>
	<polygon style="fill:#9AD8AF;" points="205.993,216.431 260.022,290.963 260.482,290.502 260.509,291.123 345.948,287.18 
		344.423,251.782 274.233,255.067 256.13,219.371 	"/>
</g>
<polygon style="fill:#FFD6CF;" points="344.423,251.782 392.423,249.352 378.489,286.379 345.948,287.18 "/>
<path style="fill:#6EADE3;" d="M7.603,455.794l31.228-31.228c17.071-17.071,44.749-17.071,61.82,0l0.318,0.318
	c17.071,17.071,44.749,17.071,61.82,0l0.318-0.318c17.071-17.071,44.749-17.071,61.82,0l0.239,0.239
	c17.102,17.102,44.841,17.067,61.9-0.08l0,0c17.058-17.146,44.798-17.181,61.9-0.08l0.239,0.239
	c17.071,17.071,44.749,17.071,61.82,0l0.318-0.318c17.071-17.071,44.749-17.071,61.82,0l31.228,31.228v-61.698l-31.228-31.228
	c-17.071-17.071-44.749-17.071-61.82,0l-0.318,0.318c-17.071,17.071-44.749,17.071-61.82,0l-0.239-0.239
	c-17.102-17.102-44.841-17.067-61.9,0.08l0,0c-17.058,17.146-44.798,17.181-61.9,0.08l-0.239-0.239
	c-17.071-17.071-44.749-17.071-61.82,0l-0.318,0.318c-17.071,17.071-44.749,17.071-61.82,0l-0.318-0.318
	c-17.071-17.071-44.749-17.071-61.82,0L7.603,394.096V455.794z"/>
<path style="fill:#557FB1;" d="M411.347,391.891l-0.318,0.318c-17.071,17.071-44.749,17.071-61.82,0l-0.239-0.239
	c-17.102-17.102-44.841-17.067-61.9,0.08l0,0c-17.058,17.146-44.798,17.181-61.9,0.079l-0.239-0.239
	c-17.071-17.071-44.749-17.071-61.82,0l-0.318,0.318c-17.071,17.071-44.749,17.071-61.82,0l-0.318-0.318
	c-17.071-17.071-44.749-17.071-61.82,0L7.603,423.12v32.674l31.228-31.228c17.071-17.071,44.749-17.071,61.82,0l0.318,0.318
	c17.071,17.071,44.749,17.071,61.82,0l0.318-0.318c17.071-17.071,44.749-17.071,61.82,0l0.239,0.239
	c17.102,17.102,44.841,17.067,61.9-0.08l0,0c17.058-17.146,44.798-17.181,61.9-0.08l0.239,0.239
	c17.071,17.071,44.749,17.071,61.82,0l0.318-0.318c17.071-17.071,44.749-17.071,61.82,0l31.228,31.228V423.12l-31.228-31.228
	C456.096,374.819,428.418,374.819,411.347,391.891z"/>
<path style="fill:#FFD6CF;" d="M260.412,68.013c-4.412-4.739-10.386-7.478-16.827-7.71l-28.409-1.022
	c-13.369-0.465-24.567,9.977-25.045,23.307l-1.79,49.756c-0.48,13.33,9.976,24.566,23.306,25.046l28.41,1.022
	c0.295,0.01,0.588,0.016,0.88,0.016c12.941,0,23.695-10.286,24.165-23.322l1.789-49.755
	C267.123,78.91,264.823,72.753,260.412,68.013z"/>
<path style="fill:#C71C4B;" d="M265.437,74.487c-1.071-2.343-2.518-4.529-4.327-6.474c-4.412-4.739-10.386-7.478-16.827-7.71
	l-28.409-1.022c-13.369-0.465-24.567,9.977-25.045,23.307l-1.033,28.724C202.208,108.987,242.418,99.754,265.437,74.487z"/>
<path d="M509.774,388.72l-19.585-19.585l20.31-27.871c1.685-2.312,1.929-5.375,0.632-7.925c-1.297-2.551-3.915-4.156-6.777-4.156
	H359.982l9.435-34.975l9.258-0.228c3.097-0.076,5.838-2.023,6.929-4.923l13.934-37.027c0.903-2.4,0.535-5.091-0.976-7.161
	c-1.513-2.071-3.973-3.251-6.525-3.109l-8.512,0.431l21.593-77.853c14.257-3.012,25.925-13.392,30.414-27.52l0.203-0.642
	c0.206-0.656,0.41-1.313,0.644-1.96l20.101-55.696c0.723-2.003,0.572-4.217-0.414-6.104c-0.987-1.887-2.721-3.273-4.778-3.823
	l-73.959-19.731c-2.051-0.547-4.24-0.211-6.034,0.927c-1.794,1.138-3.029,2.975-3.407,5.066l-10.516,58.106
	c-0.122,0.675-0.275,1.343-0.424,2.011l-0.15,0.671c-3.157,14.268,1.599,28.985,12.166,38.75l-24.867,89.796l-0.031,0.002h-0.001
	l-65.278,3.055l-14.807-29.198c1.038-9.605-1.416-19.17-7.048-27.193c-4.366-6.221-10.254-10.957-17.052-13.842l2.664-18.641
	c12.211-0.812,22.105-10.771,22.556-23.262l1.789-49.755c0.232-6.44-2.069-12.596-6.48-17.337
	c-4.412-4.739-10.386-7.478-16.827-7.71l-28.409-1.022c-13.369-0.465-24.567,9.977-25.045,23.307l-1.79,49.756
	c-0.281,7.8,3.186,14.879,8.778,19.509l-3.884,21.346c-8.912,4.05-15.753,12.278-17.567,22.625l-22.879,130.565
	c-0.167,0.954-0.141,1.897,0.038,2.793H82.514l-45.61-15.878c-2.539-0.885-5.356-0.361-7.409,1.374l-19.281,16.301
	c-2.194,1.855-3.155,4.787-2.485,7.58l8.639,36.016L2.226,388.72C0.801,390.146,0,392.08,0,394.096v61.697
	c0,3.076,1.852,5.847,4.694,7.024s6.111,0.527,8.287-1.648l31.227-31.228c6.822-6.821,15.89-10.577,25.535-10.577
	c9.646,0,18.713,3.756,25.538,10.581l0.315,0.314c9.693,9.693,22.579,15.03,36.286,15.03s26.594-5.338,36.282-15.026l0.323-0.322
	c6.821-6.821,15.888-10.577,25.534-10.577c9.645,0,18.713,3.756,25.534,10.577l0.238,0.238c9.695,9.695,22.578,15.031,36.285,15.03
	c0.022,0,0.046,0,0.068,0c13.733-0.018,26.629-5.388,36.312-15.124c6.817-6.85,15.892-10.629,25.555-10.643c0.016,0,0.03,0,0.047,0
	c9.645,0,18.711,3.755,25.537,10.582l0.233,0.233c9.693,9.693,22.579,15.03,36.287,15.03c13.707,0,26.593-5.338,36.291-15.034
	l0.314-0.314c6.821-6.821,15.889-10.577,25.534-10.577c9.646,0,18.713,3.756,25.534,10.577l31.229,31.228
	c1.456,1.455,3.4,2.227,5.379,2.227c0.979,0,1.967-0.19,2.908-0.579c2.842-1.177,4.694-3.95,4.694-7.024v-61.696
	C512,392.08,511.199,390.146,509.774,388.72z M479.305,358.25l-0.76-0.759c-6.304-6.304-13.963-10.751-22.316-13.101h33.177
	L479.305,358.25z M180.05,344.39c-8.354,2.349-16.013,6.797-22.316,13.101l-0.318,0.318c-14.077,14.079-36.988,14.08-51.067,0
	l-0.318-0.318c-6.304-6.304-13.963-10.751-22.316-13.101H180.05z M253.866,295.425c1.001,1.381,2.427,2.372,4.036,2.84
	c0.829,0.302,1.711,0.461,2.606,0.461c0.116,0,0.233-0.002,0.351-0.008l69.354-3.201l-9.036,33.494
	c-0.015,0.057-0.023,0.115-0.038,0.171h-76.534l6.567-37.473L253.866,295.425z M304.375,344.39
	c-8.508,2.339-16.304,6.848-22.696,13.274c-6.815,6.85-15.889,10.629-25.552,10.643c-0.016,0-0.031,0-0.048,0
	c-9.645,0-18.711-3.756-25.528-10.571l-0.243-0.244c-6.305-6.304-13.964-10.751-22.317-13.101h96.385V344.39z M350.031,344.39
	c0.01,0,0.02,0.002,0.03,0.002c0.008,0,0.016-0.002,0.024-0.002h78.203c-8.355,2.35-16.017,6.799-22.325,13.109l-0.309,0.31
	c-14.08,14.079-36.99,14.078-51.074-0.005l-0.233-0.233c-6.377-6.377-14.138-10.853-22.6-13.18h18.285V344.39z M344.232,329.183
	h-7.35l9.28-34.401l0.071-0.003l7.329-0.18L344.232,329.183z M373.177,278.904l-19.954,0.492l-0.879-20.401l21.27-1.077
	c0.009,0,0.018-0.001,0.027-0.001l7.58-0.383L373.177,278.904z M371.649,118.925l0.139-0.622c0.197-0.877,0.392-1.755,0.552-2.638
	l9.046-49.984l57.982,15.469l-17.289,47.904c-0.305,0.844-0.576,1.701-0.846,2.559l-0.189,0.597
	c-1.89,5.947-5.814,10.83-10.889,13.978l2.175-7.84c2.685-9.986-3.252-20.296-13.239-22.982
	c-9.985-2.684-20.296,3.252-22.968,13.185l-2.147,7.753C371.233,131.064,370.32,124.931,371.649,118.925z M390.791,132.555
	c0.5-1.857,2.491-3.006,4.349-2.505c1.857,0.5,3.004,2.491,2.519,4.291l-30.139,108.66l-7.419,0.376L390.791,132.555z
	 M240.604,143.215l-28.41-1.022c-0.955-0.034-1.867-0.22-2.721-0.528c-0.461-0.282-0.958-0.514-1.484-0.694
	c-2.762-1.619-4.573-4.663-4.45-8.08l0.589-16.381c10.253-2.19,30.899-7.862,47.161-20.376l-1.382,38.424
	C249.728,139.508,245.592,143.404,240.604,143.215z M214.63,74.478l28.409,1.022c2.163,0.078,4.186,0.935,5.771,2.415
	c-12.257,13.327-32.472,19.961-44.118,22.834l0.634-17.614C205.506,78.184,209.669,74.308,214.63,74.478z M211.647,157.389
	l15.598,0.561l-2.201,15.4l-13.885-2.433c-0.669-0.118-1.336-0.204-2.002-0.276l2.412-13.256
	C211.596,157.385,211.621,157.388,211.647,157.389z M167.768,329.015l22.879-130.565c1.47-8.392,9.496-14.023,17.888-12.554
	l19.993,3.505c13.448,2.356,22.469,15.213,20.113,28.659c-0.01,0.056-0.012,0.111-0.02,0.165c-0.022,0.144-0.04,0.288-0.054,0.432
	c-0.01,0.108-0.019,0.216-0.025,0.324c-0.007,0.139-0.009,0.278-0.009,0.418c0,0.115,0.002,0.228,0.007,0.342
	c0.006,0.131,0.017,0.261,0.03,0.39c0.012,0.121,0.025,0.24,0.043,0.36c0.018,0.122,0.042,0.243,0.065,0.365
	c0.025,0.126,0.052,0.25,0.083,0.374c0.028,0.114,0.062,0.225,0.095,0.338c0.04,0.13,0.081,0.259,0.127,0.385
	c0.039,0.105,0.079,0.21,0.123,0.314c0.054,0.131,0.112,0.26,0.172,0.386c0.025,0.053,0.044,0.105,0.07,0.158l18.102,35.695
	c1.354,2.669,4.158,4.292,7.137,4.156l62.567-2.928l0.87,20.201l-74.127,3.42l-51.748-71.386c-2.466-3.4-7.221-4.158-10.618-1.693
	c-3.4,2.464-4.16,7.219-1.694,10.618l38.902,53.665l-9.573,54.624h-61.436C167.743,329.126,167.758,329.072,167.768,329.015z
	 M23.61,339.568l12.391-10.475l39.262,13.668c-1.822-0.194-3.663-0.3-5.521-0.3c-13.707,0-26.593,5.338-36.287,15.03l-4.473,4.473
	L23.61,339.568z M496.793,437.438l-18.249-18.249c-9.693-9.693-22.579-15.03-36.287-15.03c-13.707,0-26.593,5.338-36.291,15.034
	l-0.313,0.314c-6.822,6.821-15.89,10.577-25.535,10.577c-9.646,0-18.713-3.756-25.539-10.582l-0.233-0.233
	c-9.695-9.695-22.578-15.03-36.284-15.03c-0.021,0-0.046,0-0.067,0c-13.733,0.018-26.63,5.388-36.315,15.124
	c-6.815,6.85-15.889,10.629-25.552,10.643c-0.016,0-0.031,0-0.049,0c-9.644,0-18.71-3.755-25.532-10.577l-0.238-0.238
	c-9.694-9.693-22.58-15.03-36.287-15.03c-13.707,0-26.594,5.338-36.282,15.026l-0.323,0.322
	c-6.821,6.821-15.888,10.577-25.534,10.577c-9.645,0-18.713-3.756-25.538-10.581l-0.314-0.314
	c-9.693-9.693-22.579-15.03-36.287-15.03c-13.707,0-26.593,5.338-36.287,15.03l-18.248,18.248v-40.192l29-29.002
	c6.822-6.821,15.89-10.577,25.535-10.577c9.646,0,18.713,3.756,25.534,10.577l0.319,0.319c20.009,20.008,52.566,20.007,72.573,0
	l0.318-0.318c6.821-6.821,15.888-10.577,25.534-10.577c9.645,0,18.713,3.756,25.529,10.571l0.244,0.244
	c9.695,9.695,22.578,15.03,36.284,15.03c0.022,0,0.046,0,0.068,0c13.733-0.018,26.629-5.389,36.313-15.124
	c6.817-6.85,15.892-10.63,25.555-10.643c0.016,0,0.03,0,0.047,0c9.645,0,18.711,3.755,25.537,10.582l0.233,0.233
	c20.009,20.009,52.565,20.007,72.582-0.008l0.31-0.31c6.821-6.821,15.889-10.577,25.534-10.577c9.646,0,18.713,3.756,25.534,10.577
	l29.002,29.002L496.793,437.438L496.793,437.438z"/>
<g>
</g>
<g>
</g>
<g>
</g>
<g>
</g>
<g>
</g>
<g>
</g>
<g>
</g>
<g>
</g>
<g>
</g>
<g>
</g>
<g>
</g>
<g>
</g>
<g>
</g>
<g>
</g>
<g>
</g>
</svg>
