<?xml version="1.0" encoding="iso-8859-1"?>
<!-- Generator: Adobe Illustrator 19.0.0, SVG Export Plug-In . SVG Version: 6.00 Build 0)  -->
<svg version="1.1" id="Capa_1" xmlns="http://www.w3.org/2000/svg" xmlns:xlink="http://www.w3.org/1999/xlink" x="0px" y="0px"
	 viewBox="0 0 388.8 388.8" style="enable-background:new 0 0 388.8 388.8;" xml:space="preserve">
<g>
	<g>
		<path d="M221.84,209.939c-4.418,0-8-3.582-8-8v-36.56h-38.88v36.56c0,4.418-3.582,8-8,8H130.4v38.8h36.56c4.418,0,8,3.582,8,8
			v36.56h38.8v-36.56c0-4.418,3.582-8,8-8h36.64v-38.8H221.84z"/>
	</g>
</g>
<g>
	<g>
		<path d="M333.6,89.459H55.2c-25.44,0-55.2,14.48-55.2,55.2v173.84c0,40.72,29.76,55.2,55.2,55.2h278.4
			c25.44,0,55.2-14.48,55.2-55.2v-173.84C388.8,103.939,359.12,89.459,333.6,89.459z M274.4,252.819
			c0,6.583-5.337,11.92-11.92,11.92h-32.64v32.64c0,6.583-5.337,11.92-11.92,11.92h-47.04c-6.583,0-11.92-5.337-11.92-11.92v-32.64
			H126.4c-6.583,0.044-11.956-5.257-12-11.84c0-0.027,0-0.054,0-0.08v-46.96c0-6.583,5.337-11.92,11.92-11.92h32.64v-32.64
			c0-6.583,5.337-11.92,11.92-11.92h46.96c6.583,0,11.92,5.337,11.92,11.92v32.64h32.64c6.583-0.044,11.956,5.257,12,11.84
			c0,0.027,0,0.053,0,0.08V252.819z"/>
	</g>
</g>
<g>
	<g>
		<path d="M245.835,15.139c-0.877-0.05-1.757-0.05-2.635,0h-97.6c-12.837-0.727-23.833,9.089-24.56,21.925
			c-0.05,0.878-0.05,1.757,0,2.635v36h16l0.08-36c0-2.32,0-8.56,8.56-8.56h97.52c8.56,0,8.56,6.16,8.56,8.56v36h16v-36
			C268.488,26.862,258.671,15.867,245.835,15.139z"/>
	</g>
</g>
<g>
</g>
<g>
</g>
<g>
</g>
<g>
</g>
<g>
</g>
<g>
</g>
<g>
</g>
<g>
</g>
<g>
</g>
<g>
</g>
<g>
</g>
<g>
</g>
<g>
</g>
<g>
</g>
<g>
</g>
</svg>
