<?xml version="1.0"?>
<svg xmlns="http://www.w3.org/2000/svg" viewBox="0 0 64 64" width="512" height="512"><g id="outline"><path d="M28,22v6a1,1,0,0,0,1,1h6a1,1,0,0,0,1-1V22a1,1,0,0,0-1-1H29A1,1,0,0,0,28,22Zm2,1h4v4H30Z"/><path d="M37,43.918V37h9a1,1,0,0,0,1-1V32.346L57.786,18.618l-.005,0A1,1,0,0,0,58,18V14a1,1,0,0,0-.191-.588C57.47,12.946,49.311,2,32,2S6.53,12.946,6.191,13.412A1,1,0,0,0,6,14v4a1,1,0,0,0,.219.614l0,0L17,32.346V36a1,1,0,0,0,1,1h9v6.918l-1.983,11.9-1,4.986A1,1,0,0,0,25,62h4a1,1,0,0,0,.98-.8l1-5s0-.01,0-.014,0-.012.006-.018L32,50.082l1.014,6.082c0,.006,0,.011.006.018s0,.009,0,.014l1,5A1,1,0,0,0,35,62h4a1,1,0,0,0,.98-1.2l-1-4.986ZM33.181,45h1.972l1.666,10H34.847ZM29.153,55H27.181l1.666-10h1.972ZM8.6,18.421a64.4,64.4,0,0,1,7.833-2.452L26.162,31H18.486ZM45.514,31H37.838l9.726-15.031A64.4,64.4,0,0,1,55.4,18.421ZM29,41h6v2H29Zm1.414-2L32,37.414,33.586,39ZM35,37.586,33.414,36,35,34.414Zm-3-3L30.414,33h3.172Zm13.491-19.1L35.456,31H28.544L18.509,15.49A64.42,64.42,0,0,1,32,14,64.42,64.42,0,0,1,45.491,15.49ZM38,12.291V4.519a32.365,32.365,0,0,1,8,2.443v6.577A68.959,68.959,0,0,0,38,12.291ZM18,13.539V6.951a32.332,32.332,0,0,1,8-2.434v7.774A68.959,68.959,0,0,0,18,13.539ZM29,34.414,30.586,36,29,37.586ZM45,35H37V33h8ZM56,14.347V16.5A65.007,65.007,0,0,0,48,14V7.97A28.039,28.039,0,0,1,56,14.347ZM36,4.242v7.889C34.7,12.048,33.366,12,32,12s-2.7.048-4,.131V4.241a33.247,33.247,0,0,1,8,0ZM8,14.345a27.81,27.81,0,0,1,8-6.387V14a65.007,65.007,0,0,0-8,2.5ZM19,35V33h8v2Zm9.181,25H26.22l.6-3H28.78Zm7.638,0-.6-3h1.961l.6,3Z"/><path d="M18,54h-.311c-.909-2.017-2.778-3-5.689-3-2.73,0-4.878,1.153-5.712,3H6a3.913,3.913,0,0,0-4,4v1a1,1,0,0,0,1,1H21a1,1,0,0,0,1-1V58A3.748,3.748,0,0,0,18,54ZM4,58a1.913,1.913,0,0,1,2-2H7a1,1,0,0,0,.974-.772C8.357,53.583,10.383,53,12,53c2.927,0,3.674,1.1,4.045,2.3A1,1,0,0,0,17,56h1a1.793,1.793,0,0,1,2,2Z"/><path d="M58,47h-.311c-.909-2.017-2.778-3-5.689-3-2.73,0-4.878,1.153-5.712,3H46a3.913,3.913,0,0,0-4,4v1a1,1,0,0,0,1,1H61a1,1,0,0,0,1-1V51A3.748,3.748,0,0,0,58,47ZM44,51a1.913,1.913,0,0,1,2-2h1a1,1,0,0,0,.974-.772C48.357,46.583,50.383,46,52,46c2.927,0,3.674,1.1,4.045,2.3A1,1,0,0,0,57,49h1a1.793,1.793,0,0,1,2,2Z"/><rect x="30" y="6" width="2" height="2"/><rect x="41" y="9" width="2" height="2"/><rect x="20" y="9" width="2" height="2"/></g></svg>
