<?xml version="1.0"?>
<svg xmlns="http://www.w3.org/2000/svg" viewBox="0 0 64 64" width="512" height="512"><g id="flat"><path d="M21,59V58a2.768,2.768,0,0,0-3-3H17c-.593-1.9-2-3-5-3-2.227,0-4.518.932-5,3H6a2.919,2.919,0,0,0-3,3v1Z" style="fill:#50b3c9"/><path d="M61,52V51a2.768,2.768,0,0,0-3-3H57c-.593-1.9-2-3-5-3-2.227,0-4.518.932-5,3H46a2.919,2.919,0,0,0-3,3v1Z" style="fill:#50b3c9"/><rect x="29" y="22" width="6" height="6" transform="translate(7 57) rotate(-90)" style="fill:#ffd782"/><rect x="26" y="34" width="12" height="8" transform="translate(-6 70) rotate(-90)" style="fill:#4c6cae"/><polygon points="36 44 38 56 34 56 32 44 36 44" style="fill:#edae3e"/><polygon points="32 44 30 56 26 56 28 44 32 44" style="fill:#edae3e"/><polygon points="34 56 38 56 39 61 35 61 34 56" style="fill:#38495c"/><polygon points="26 56 30 56 29 61 25 61 26 56" style="fill:#38495c"/><rect x="18" y="32" width="10" height="4" style="fill:#edae3e"/><rect x="36" y="32" width="10" height="4" style="fill:#edae3e"/><rect x="28" y="32" width="8" height="8" style="fill:#cdeef6"/><rect x="11.5" y="16.098" width="2" height="17.804" transform="translate(-12.775 13.065) rotate(-38.157)" style="fill:#4c6cae"/><path d="M35.293,40.707l-8-8a.954.954,0,0,1-.133-.164L15.69,14.8l2.15-.339L28.782,31.368l7.925,7.925Z" style="fill:#4c6cae"/><rect x="42.598" y="24" width="17.804" height="2" transform="translate(0.015 50.03) rotate(-51.821)" style="fill:#4c6cae"/><polygon points="46.16 14.457 35.217 31.368 27.293 39.293 28.707 40.707 36.707 32.707 36.84 32.543 48.29 14.848 46.16 14.457" style="fill:#4c6cae"/><path d="M57,18a66.757,66.757,0,0,0-25-5A66.757,66.757,0,0,0,7,18V14S15,3,32,3,57,14,57,14Z" style="fill:#4f97d5"/><path d="M37,13.208A68.347,68.347,0,0,1,47,14.8V6.3A33.287,33.287,0,0,0,37,3.337Z" style="fill:#cdeef6"/><path d="M17,14.8a68.347,68.347,0,0,1,10-1.588V3.337A33.287,33.287,0,0,0,17,6.3Z" style="fill:#cdeef6"/><rect x="30" y="6" width="2" height="2" style="fill:#fff"/><rect x="41" y="9" width="2" height="2" style="fill:#fff"/><rect x="20" y="9" width="2" height="2" style="fill:#fff"/></g></svg>
