<svg height="496pt" viewBox="0 0 496 496" width="496pt" xmlns="http://www.w3.org/2000/svg"><path d="m248 216c-13.230469 0-24 10.769531-24 24s10.769531 24 24 24 24-10.769531 24-24-10.769531-24-24-24zm0 32c-4.40625 0-8-3.585938-8-8s3.59375-8 8-8 8 3.585938 8 8-3.59375 8-8 8zm0 0"/><path d="m248 0c-136.742188 0-248 111.246094-248 248s111.257812 248 248 248 248-111.246094 248-248-111.257812-248-248-248zm232 248c0 53.039062-17.9375 101.953125-48 141.070312v-13.71875c0-10.367187-2.945312-20.152343-8-28.609374v-42.742188c0-30.871094-25.121094-56-56-56h-24.761719c9.433594-12.535156 16.25-26.800781 20.167969-42.0625 12.875-15.867188 20.59375-36.066406 20.59375-58.050781v-51.886719c0-13.230469-10.769531-24-24-24h-2.070312c-7.160157-16.398438-17.59375-30.609375-30.410157-41.960938 88.871094 32.527344 152.480469 117.960938 152.480469 217.960938zm-368 0v-16c0-4.414062 3.59375-8 8-8s8 3.585938 8 8v16c0 4.414062-3.59375 8-8 8s-8-3.585938-8-8zm228.230469-176h-65.984375l12.179687-48.71875c22.949219 9.0625 42.109375 26.175781 53.804688 48.71875zm-69.117188-53.433594-13.359375 53.433594h-19.507812l-13.335938-53.351562c7.488282-1.726563 15.226563-2.648438 23.089844-2.648438 7.902344 0 15.648438.886719 23.113281 2.566406zm-61.496093 4.867188 12.136718 48.566406h-65.945312c11.632812-22.222656 30.917968-39.398438 53.808594-48.566406zm-73.617188 64.566406h224c4.40625 0 8 3.585938 8 8v51.886719c0 19.328125-7.238281 36.960937-19.136719 50.410156v.007813c-11.910156 13.464843-28.511719 22.671874-47.390625 25.03125-1.746094-5.574219-4.359375-10.75-7.648437-15.433594 32.238281-1.03125 58.175781-27.519532 58.175781-60.015625v-43.886719h-208v43.886719c0 32.488281 25.9375 58.984375 58.183594 60.007812-3.289063 4.679688-5.910156 9.859375-7.648438 15.433594-37.742187-4.71875-66.535156-36.761719-66.535156-75.441406v-51.886719c0-4.414062 3.59375-8 8-8zm167.359375 160c.375-2.625.640625-5.28125.640625-8 0-.289062-.039062-.558594-.039062-.847656 12.007812-1.566406 23.253906-5.417969 33.3125-11.105469-4.167969 7.191406-9.21875 13.882813-15.058594 19.953125zm-55.359375 32c-22.054688 0-40-17.945312-40-40s17.945312-40 40-40 40 17.945312 40 40-17.945312 40-40 40zm48 28.6875-48 48-48-48v-22.589844c14.640625 6.335938 30.632812 9.902344 47.257812 9.902344v-.039062c.246094.007812.496094.039062.742188.039062h48zm-19.304688-116.6875c-8.40625-5.046875-18.199218-8-28.695312-8s-20.289062 2.953125-28.695312 8h-15.199219c-24.3125 0-44.105469-19.792969-44.105469-44.113281v-27.886719h176v27.886719c0 24.320312-19.792969 44.113281-44.113281 44.113281zm-76.941406 76.289062c-17.960937-9.304687-33.035156-23.6875-43.082031-41.433593 10.566406 6.351562 22.535156 10.625 35.375 12.296875-.007813.289062-.046875.558594-.046875.847656 0 10.328125 2.855469 19.976562 7.753906 28.289062zm-55.753906-31.410156c9.910156 16.65625 23.703125 30.617188 40 40.792969v27.777344l-16 3.199219v-4.648438c0-19.191406-11.34375-35.734375-27.65625-43.414062 2.28125-3.664063 3.65625-7.953126 3.65625-12.585938zm-47.671875 14.394532-34.542969 20.726562h-5.785156v-56h5.785156l34.214844 20.527344v11.472656c0 1.121094.183594 2.191406.328125 3.273438zm-8.328125 52.726562c0-17.648438 14.351562-32 32-32s32 14.351562 32 32v7.839844l-42.984375 8.59375c-7.785156 1.558594-14.816406 4.855468-21.015625 9.222656zm101.367188 16.679688 58.632812 58.632812 58.632812-58.632812 28.519532 5.703124-87.152344 93.855469-87.152344-93.855469zm122.632812-15.230469v-9.449219h56c4.40625 0 8 3.585938 8 8v14.238281zm56-25.449219h-80.886719c4.695313-4.59375 8.542969-10.007812 11.398438-16h69.488281c22.054688 0 40 17.945312 40 40v25.664062c-4.816406-3.390624-10.183594-6-16-7.753906v-17.910156c0-13.230469-10.769531-24-24-24zm-198.871094-250.175781c-13.144531 11.449219-23.855468 25.75-31.050781 42.175781h-2.078125c-13.230469 0-24 10.769531-24 24v51.886719c0 20.664062 6.855469 39.738281 18.367188 55.136719.671874 2.929687 1.417968 5.839843 2.296874 8.679687-3.6875-2.3125-8-3.703125-12.664062-3.703125-8.808594 0-16.433594 4.816406-20.609375 11.902344l-33.175781-19.902344h-26.214844v88h26.214844l11.671875-7c-3.742188 6.832031-5.886719 14.671875-5.886719 23v42.742188c-5.054688 8.457031-8 18.242187-8 28.609374v13.71875c-30.0625-39.117187-48-88.03125-48-141.070312 0-100.238281 63.910156-185.824219 153.128906-218.175781zm198.871094 416.664062v-70.488281h-16v79.289062c-31.304688 15.765626-66.617188 24.710938-104 24.710938s-72.695312-8.945312-104-24.710938v-71.289062h-16v62.488281c-17.695312-10.734375-33.808594-23.816406-48-38.734375v-32.394531c0-8.648437 2.910156-16.703125 7.71875-23.351563h.28125v-.398437c5.753906-7.746094 14.175781-13.472656 24.160156-15.472656l30.273438-6.058594 105.566406 113.683594 105.566406-113.691407 30.273438 6.058594c18.640625 3.726563 32.160156 20.222656 32.160156 39.222656v32.390626c-14.191406 14.921874-30.304688 28-48 38.746093zm0 0"/></svg>