<svg height="496pt" viewBox="0 0 496 496" width="496pt" xmlns="http://www.w3.org/2000/svg"><path d="m465.375 256c-8.175781 0-15.871094 3.183594-21.65625 8.96875l-47.03125 47.03125 16 16-124.6875 124.6875-18.34375-18.34375-11.3125 11.3125 18.34375 18.34375-18.34375 18.34375 11.3125 11.3125 18.34375-18.34375 18.34375 18.34375 11.3125-11.3125-18.34375-18.34375 124.6875-124.6875 16 16 47.03125-47.03125c5.785156-5.785156 8.96875-13.472656 8.96875-21.65625 0-16.882812-13.742188-30.625-30.625-30.625zm10.34375 40.96875-35.71875 35.71875-20.6875-20.6875 35.71875-35.71875c2.722656-2.722656 6.488281-4.28125 10.34375-4.28125 8.066406 0 14.625 6.558594 14.625 14.625 0 3.855469-1.558594 7.621094-4.28125 10.34375zm0 0"/><path d="m266.339844 330.34375 16-16 11.3125 11.3125-16 16zm0 0"/><path d="m298.335938 298.34375 40-39.996094 11.3125 11.3125-40 40zm0 0"/><path d="m154.34375 218.34375 15.996094-16 11.3125 11.3125-15.996094 16zm0 0"/><path d="m186.339844 186.34375 39.996094-39.996094 11.316406 11.3125-40 40zm0 0"/><path d="m13.65625 237.65625 18.34375-18.34375 18.34375 18.34375 11.3125-11.3125-18.34375-18.34375 124.6875-124.6875 16 16 47.03125-47.023438c5.785156-5.792968 8.96875-13.480468 8.96875-21.65625 0-16.898437-13.742188-30.632812-30.625-30.632812-8.183594 0-15.871094 3.183594-21.65625 8.976562l-47.03125 47.023438 16 16-124.6875 124.6875-18.34375-18.34375-11.3125 11.3125 18.34375 18.34375-18.34375 18.34375zm185.375-217.375c2.730469-2.722656 6.488281-4.28125 10.34375-4.28125 8.066406 0 14.625 6.558594 14.625 14.632812 0 3.902344-1.519531 7.582032-4.28125 10.34375l-35.71875 35.710938-20.6875-20.6875zm0 0"/><path d="m389.289062 270.023438 86.855469-66.808594c12.429688-9.566406 19.855469-24.648438 19.855469-40.335938 0-28.054687-22.832031-50.878906-50.878906-50.878906-15.6875 0-30.769532 7.425781-40.335938 19.855469l-66.808594 86.847656-111.296874 111.304687-114.679688 90.105469v3.886719c0 39.703125 32.296875 72 72 72h3.886719l90.105469-114.679688zm7.71875-26.121094-12.3125 9.472656-30.109374-30.109375 19.46875-25.28125zm-12.113281-60 13.410157-17.40625 27.589843 55.183594-15.964843 12.28125zm60.226563-55.902344c19.230468 0 34.878906 15.648438 34.878906 34.878906 0 10.753906-5.089844 21.089844-13.609375 27.65625l-27.574219 21.207032-29.664062-59.328126 8.320312-10.796874c6.550782-8.527344 16.886719-13.617188 27.648438-13.617188zm-101.121094 107.3125 28.734375 28.734375-100.734375 100.640625-28.726562-28.726562zm-82.640625 141.367188-55.933594 71.136718c-24.121093-1.816406-43.410156-21.097656-45.234375-45.214844l71.175782-55.921874zm-81.152344 103.191406c-27.863281-1.871094-50.207031-24.214844-52.085937-52.085938l17.695312-13.90625c5.664063 23.855469 24.449219 42.640625 48.304688 48.296875zm0 0"/><path d="m277.289062 158.023438 86.847657-66.808594h.007812c12.429688-9.566406 19.855469-24.648438 19.855469-40.335938 0-28.054687-22.832031-50.878906-50.878906-50.878906-15.6875 0-30.769532 7.425781-40.335938 19.855469l-66.808594 86.847656-111.296874 111.296875-114.679688 90.113281v3.886719c0 39.703125 32.296875 72 72 72h3.886719l90.105469-114.679688zm7.71875-26.121094-12.3125 9.472656-30.109374-30.109375 19.46875-25.28125zm-12.113281-60 13.410157-17.40625 27.589843 55.183594-15.964843 12.28125zm60.226563-55.902344c19.230468 0 34.878906 15.648438 34.878906 34.878906 0 10.753906-5.089844 21.089844-13.617188 27.65625h.007813l-27.574219 21.207032-29.664062-59.328126 8.320312-10.796874c6.550782-8.527344 16.886719-13.617188 27.648438-13.617188zm-101.121094 107.3125 28.734375 28.734375-100.734375 100.640625-28.726562-28.726562zm-82.640625 141.367188-55.933594 71.136718c-24.121093-1.816406-43.410156-21.097656-45.234375-45.214844l71.175782-55.921874zm-81.152344 103.191406c-27.863281-1.871094-50.207031-24.214844-52.085937-52.085938l17.695312-13.90625c5.664063 23.855469 24.449219 42.640625 48.304688 48.296875zm0 0"/></svg>