<svg height="496pt" viewBox="0 0 496 496" width="496pt" xmlns="http://www.w3.org/2000/svg" xmlns:xlink="http://www.w3.org/1999/xlink"><linearGradient id="a" gradientUnits="userSpaceOnUse" x1="248" x2="248" y1="496" y2="0"><stop offset="0" stop-color="#9f2fff"/><stop offset="1" stop-color="#0bb1d3"/></linearGradient><path d="m465.375 256c-8.183594 0-15.871094 3.183594-21.65625 8.96875l-47.03125 47.03125 16 16-124.6875 124.6875-18.34375-18.34375-11.3125 11.3125 18.34375 18.34375-18.34375 18.34375 11.3125 11.3125 18.34375-18.34375 18.34375 18.34375 11.3125-11.3125-18.34375-18.34375 124.6875-124.6875 16 16 47.03125-47.03125c5.785156-5.785156 8.96875-13.472656 8.96875-21.65625 0-16.882812-13.742188-30.625-30.625-30.625zm10.34375 40.96875-35.71875 35.71875-20.6875-20.6875 35.71875-35.71875c2.722656-2.722656 6.488281-4.28125 10.34375-4.28125 8.066406 0 14.625 6.558594 14.625 14.625 0 3.855469-1.558594 7.621094-4.28125 10.34375zm-193.375 17.375 11.3125 11.3125-16 16-11.3125-11.3125zm56-56 11.3125 11.3125-40 40-11.3125-11.3125zm-172.6875-28.6875-11.3125-11.3125 16-16 11.3125 11.3125zm32-32-11.3125-11.3125 40-40 11.3125 11.3125zm-184 40 18.34375-18.34375 18.34375 18.34375 11.3125-11.3125-18.34375-18.34375 124.6875-124.6875 16 16 47.03125-47.03125c5.785156-5.785156 8.96875-13.472656 8.96875-21.648438 0-16.898437-13.742188-30.632812-30.625-30.632812-8.191406 0-15.871094 3.183594-21.65625 8.976562l-47.03125 47.023438 16 16-124.6875 124.6875-18.34375-18.34375-11.3125 11.3125 18.34375 18.34375-18.34375 18.34375zm185.375-217.375c2.730469-2.722656 6.488281-4.28125 10.34375-4.28125 8.066406 0 14.625 6.558594 14.625 14.632812 0 3.902344-1.519531 7.582032-4.28125 10.34375l-35.71875 35.710938-20.6875-20.6875zm246.089844 91.71875c-15.6875 0-30.769532 7.425781-40.335938 19.855469l-66.808594 86.847656-111.296874 111.304687-114.679688 90.105469v3.886719c0 39.703125 32.296875 72 72 72h3.886719l90.105469-114.679688 111.296874-111.296874 86.855469-66.808594c12.429688-9.566406 19.855469-24.648438 19.855469-40.335938 0-28.054687-22.832031-50.878906-50.878906-50.878906zm-264.914063 367.871094c-27.863281-1.871094-50.207031-24.214844-52.085937-52.085938l17.695312-13.898437c5.664063 23.847656 24.449219 42.632812 48.304688 48.296875zm25.21875-32.054688c-24.121093-1.824218-43.410156-21.105468-45.234375-45.214844l71.167969-55.921874 30.007813 30.007812zm66.574219-83.128906-28.726562-28.726562 100.726562-100.648438 28.734375 28.734375zm112.6875-111.3125-30.113281-30.109375 19.472656-25.28125 22.960937 45.910156zm25.242188-19.40625-25.035157-50.066406 13.410157-17.398438 27.589843 55.183594zm56.460937-43.433594-27.566406 21.207032-29.664063-59.328126 8.3125-10.796874c6.550782-8.527344 16.886719-13.617188 27.648438-13.617188 19.230468 0 34.878906 15.648438 34.878906 34.878906 0 10.761719-5.089844 21.097656-13.609375 27.65625zm-466.390625 121.464844c0 39.703125 32.296875 72 72 72h3.886719l90.105469-114.679688 111.296874-111.296874 86.855469-66.808594c12.429688-9.566406 19.855469-24.648438 19.855469-40.335938 0-28.054687-22.832031-50.878906-50.878906-50.878906-15.6875 0-30.769532 7.425781-40.335938 19.855469l-66.808594 86.847656-111.296874 111.296875-114.679688 90.113281zm305.472656-282.382812c6.550782-8.527344 16.886719-13.617188 27.648438-13.617188 19.230468 0 34.878906 15.648438 34.878906 34.878906 0 10.753906-5.089844 21.089844-13.609375 27.65625l-27.566406 21.207032-29.664063-59.335938zm-19.167968 24.878906 27.589843 55.183594-15.964843 12.289062-25.035157-50.066406zm-24.257813 31.488281 22.960937 45.917969-12.320312 9.472656-30.113281-30.109375zm-30.046875 37.328125 28.734375 28.734375-100.734375 100.640625-28.726562-28.726562zm-112.640625 111.359375 30.007813 30-55.941407 71.136719c-24.121093-1.824219-43.410156-21.105469-45.234375-45.214844zm-85.542969 67.214844c5.664063 23.847656 24.449219 42.632812 48.304688 48.296875l-13.914063 17.6875c-27.863281-1.871094-50.207031-24.214844-52.085937-52.085938zm0 0" fill="url(#a)"/></svg>