<?xml version="1.0"?>
<svg xmlns="http://www.w3.org/2000/svg" viewBox="0 0 64 64" width="512" height="512"><g id="outline"><path d="M19,54a1,1,0,0,0-1,1v6a1,1,0,0,0,1,1h6a1,1,0,0,0,1-1V55a1,1,0,0,0-1-1Zm5,6H20V56h4Z"/><path d="M17,44.837l-2.051-6.153A1,1,0,0,0,14,38H10a1,1,0,0,0-.949,1.316l4,12A1,1,0,0,0,14,52H30a1,1,0,0,0,.949-.684l4-12A1,1,0,0,0,34,38H30a1,1,0,0,0-.949.684L27,44.837V19a1,1,0,0,0-1-1H18a1,1,0,0,0-1,1ZM14.721,50,11.387,40h1.892l3.334,10Zm16-10h1.892L29.279,50H27.387ZM23,20h2v2H23Zm0,4h2V34H23Zm-4-4h2v2H19Zm0,4h2V34H19Zm0,12h6v4H19Zm0,6h6v2H19Zm0,4h6v4H23V48H21v2H19Z"/><path d="M43,47a1,1,0,0,0-1,1v6a1,1,0,0,0,1,1h6a1,1,0,0,0,1-1V48a1,1,0,0,0-1-1Zm5,6H44V49h4Z"/><path d="M38,31a1,1,0,0,0-1,1V42a3,3,0,0,0,3,3H52a3,3,0,0,0,3-3V32a1,1,0,0,0-1-1H51V28.082l1.983-11.9,1-4.986A1,1,0,0,0,53,10H49a1,1,0,0,0-.98.8l-1,5s0,.01,0,.015-.005.011-.006.017L46,21.918l-1.014-6.082c0-.006,0-.011-.006-.017l-1-5.015A1,1,0,0,0,43,10H39a1,1,0,0,0-.98,1.2l1,4.986L41,28.082V31Zm3,12H40a1,1,0,0,1-1-1V33h2Zm8,0H47V41H45v2H43V39h6Zm0-6H43V35h6Zm4-4v9a1,1,0,0,1-1,1H51V33ZM49.82,12h1.96l-.6,3H49.22Zm-.973,5h1.972L49.153,27H47.181ZM49,29v4H43V29ZM43.153,17l1.666,10H42.847L41.181,17ZM40.82,15l-.6-3h1.96l.6,3Z"/><rect x="21" y="4" width="2" height="10"/><rect x="17" y="2" width="2" height="10"/><rect x="25" y="2" width="2" height="10"/><rect x="45" y="3" width="2" height="6"/><rect x="41" y="2" width="2" height="5"/><rect x="49" y="2" width="2" height="5"/><path d="M3,17H15a1,1,0,0,0,1-1v-.857c0-2.593-1.564-3.54-2.933-3.571A3.951,3.951,0,0,0,9,9a4.29,4.29,0,0,0-4.085,2.572C3.248,11.622,2,13.141,2,15.143V16A1,1,0,0,0,3,17Zm2-3.429h.667a1,1,0,0,0,.983-.821A2.207,2.207,0,0,1,9,11a2.049,2.049,0,0,1,2.362,1.807,1,1,0,0,0,.971.764H13c.772,0,.975.746,1,1.429H4C4.047,14.176,4.46,13.571,5,13.571Z"/><path d="M59.067,56.572A3.951,3.951,0,0,0,55,54a4.29,4.29,0,0,0-4.085,2.572C49.248,56.622,48,58.141,48,60.143V61a1,1,0,0,0,1,1H61a1,1,0,0,0,1-1v-.857C62,57.55,60.436,56.6,59.067,56.572ZM50,60c.043-.824.456-1.429,1-1.429h.667a1,1,0,0,0,.983-.821A2.207,2.207,0,0,1,55,56a2.049,2.049,0,0,1,2.362,1.807,1,1,0,0,0,.971.764H59c.772,0,.975.746,1,1.429Z"/></g></svg>
