<?xml version="1.0" encoding="iso-8859-1"?>
<!-- Generator: Adobe Illustrator 21.0.0, SVG Export Plug-In . SVG Version: 6.00 Build 0)  -->
<svg xmlns="http://www.w3.org/2000/svg" xmlns:xlink="http://www.w3.org/1999/xlink" version="1.1" id="Capa_1" x="0px" y="0px" viewBox="0 0 511.999 511.999" style="enable-background:new 0 0 511.999 511.999;" xml:space="preserve" width="512" height="512">
<g>
	<path style="fill:#579FFF;" d="M454.13,66.784l-64.789-45.537C378.926,13.928,366.508,10,353.781,10h-62.006v55.872h35.908   c12.398,0,24.51,3.727,34.765,10.698l43.023,29.246c16.076,11.032,25.684,29.282,25.684,48.784v186.532   c0,21.463-11.619,41.242-30.362,51.684l-59.923,33.386c-9.203,5.127-19.563,7.819-30.097,7.819h-41.521l0,59.239h56.028   c10.653,0,21.125-2.752,30.402-7.99l91.554-51.69C474.287,418.207,491,389.481,491,358.357v-220.71   C491,109.424,477.238,82.974,454.13,66.784z"/>
	<path style="fill:#F46370;" d="M370.97,12.44l-26.229,55.83c-5.518-1.59-11.255-2.4-17.063-2.4h-35.904V10h62.003   C359.635,10,365.412,10.83,370.97,12.44z"/>
	<path style="fill:#91DEF5;" d="M337.493,151.963c-33.477-4.352-79.113-8.597-129.764-8.597c-50.654,0-96.293,4.246-129.771,8.598   C45.363,156.201,21,184.017,21,216.9v74.067c0,16.101,8.981,30.855,23.279,38.246l36.233,18.728   c20.989,10.849,46.796,2.74,57.815-18.167l16.828-31.929c6.37-12.086,18.905-19.651,32.563-19.651h20.011h20.011   c13.658,0,26.193,7.565,32.563,19.651l16.828,31.929c11.019,20.907,36.826,29.017,57.815,18.167l36.233-18.728   c14.298-7.391,23.279-22.145,23.279-38.246V216.9C394.458,184.014,370.09,156.201,337.493,151.963z"/>
	<path style="fill:#E8E7E9;" d="M290.841,345.196l-4.345,4.795c-17.312,19.106-41.888,30.004-67.665,30.004h-22.203   c-25.777,0-50.353-10.898-67.665-30.004l-4.345-4.795c5.577-3.821,10.335-9.026,13.71-15.424l16.821-31.929   c6.375-12.088,18.913-19.648,32.572-19.648h40.017c13.659,0,26.197,7.56,32.562,19.648l16.831,31.929   C280.506,336.17,285.264,341.375,290.841,345.196z"/>
	<path style="fill:#E8E7E9;" d="M269.252,423.982v78.018H154.09v-78.018h20.135c5.541,0,10.032,4.493,10.032,10.036l0,0   c0,5.543,4.492,10.037,10.032,10.037h34.279c5.541,0,10.032-4.493,10.032-10.037l0,0c0-5.543,4.492-10.036,10.032-10.036H269.252z"/>
	<rect x="112.76" y="445.771" style="fill:#F46370;" width="41.327" height="37.8"/>
	<path style="fill:#F46370;" d="M338.774,491.76c-4.418,0.99-8.936,1.5-13.494,1.5h-56.026v-59.24h41.522   c5.078,0,10.116-0.62,14.994-1.86L338.774,491.76z"/>
	<path style="fill:#231F20;" d="M196.628,389.995h22.203c28.06,0,54.976-11.733,74.09-32.231c14.377,6.636,31.553,6.846,46.616-0.94   l36.233-18.729c17.695-9.146,28.687-27.205,28.687-47.129v-74.067c0-37.806-28.234-69.985-65.675-74.853   c-44.308-5.76-88.4-8.681-131.054-8.681c-42.657,0-86.752,2.921-131.06,8.682C39.231,146.914,11,179.094,11,216.899v74.067   c0,19.924,10.992,37.983,28.687,47.129l36.233,18.729c7.729,3.995,16.012,5.888,24.192,5.887c7.764,0,15.431-1.707,22.434-4.94   C141.66,378.265,168.572,389.995,196.628,389.995z M138.946,345.986c0.115-0.123,0.218-0.256,0.332-0.379   c0.643-0.697,1.272-1.412,1.881-2.149c3.759-4.56,6.393-9.738,9.129-14.93l13.714-26.021c2.035-3.862,4.919-7.084,8.354-9.487   c4.42-3.09,9.752-4.825,15.365-4.825h10.007v81.8h-1.1C174.968,369.995,154.155,361.289,138.946,345.986z M218.832,369.995h-1.103   v-81.8h10.01c3.898,0,7.655,0.847,11.069,2.392c3.876,1.755,7.3,4.425,9.972,7.822c0.999,1.271,1.903,2.633,2.674,4.098   l6.944,13.172l9.886,18.757c1.147,2.175,2.462,4.276,3.899,6.271c1.249,1.732,2.588,3.373,4.013,4.916   c0.109,0.119,0.209,0.246,0.319,0.364C261.305,361.289,240.492,369.995,218.832,369.995z M85.103,339.058L48.87,320.329   C37.847,314.631,31,303.38,31,290.966v-74.067c0-27.79,20.742-51.443,48.247-55.019c43.457-5.65,86.684-8.515,128.482-8.515   c41.794,0,85.02,2.864,128.476,8.514c27.509,3.576,48.253,27.23,48.253,55.02v74.067c0,12.414-6.848,23.665-17.871,29.363   l-36.233,18.729c-13.401,6.926-29.489,3.698-39.338-6.862c-1.975-2.131-3.682-4.515-5.038-7.086l-7.783-14.764l-9.046-17.163   c-0.934-1.773-1.983-3.459-3.113-5.072c-0.098-0.139-0.185-0.288-0.284-0.426c-0.045-0.063-0.095-0.12-0.141-0.183   c-5.405-7.464-12.835-13.073-21.311-16.272c-5.203-1.965-10.793-3.035-16.562-3.035h-40.022c-10.629,0-20.668,3.581-28.735,9.861   c-5.155,4.013-9.511,9.118-12.68,15.127l-12.78,24.257c-2.633,4.997-5.003,10.215-8.802,14.461   C114.899,342.7,98.628,346.049,85.103,339.058z"/>
	<path style="fill:#231F20;" d="M181.978,173.881c-0.484-5.501-5.327-9.571-10.838-9.084l-79.646,7.012   c-12.959,1.141-24.936,7.055-33.723,16.653c-8.786,9.597-13.624,22.048-13.624,35.062v24.537c0,5.523,4.477,10,10,10   s10-4.477,10-10v-24.537c0-16.664,12.511-30.331,29.101-31.792l79.646-7.012C178.395,184.235,182.462,179.382,181.978,173.881z"/>
	<path style="fill:#231F20;" d="M59.699,277.989c-3.63-2.405-8.518-2.177-11.894,0.583c-3.191,2.608-4.445,7.044-3.126,10.941   c1.354,4.004,5.243,6.786,9.47,6.786c4.689,0,8.826-3.395,9.787-7.971C64.762,284.396,63.051,280.209,59.699,277.989z"/>
	<path style="fill:#231F20;" d="M459.869,58.595l-64.778-45.53c-8.68-6.1-18.445-10.136-28.726-11.954   c-4.194-0.621-8.34-1.089-12.588-1.112h-62.002h-0.001c-5.523,0-10,4.477-10,10v55.87c0,2.416,0.857,4.632,2.284,6.361   c1.834,2.224,4.61,3.641,7.718,3.641h35.907c4.803,0,9.618,0.667,14.235,1.993c5.271,1.505,10.298,3.841,14.909,6.976   l42.987,29.222c13.363,9.171,21.342,24.326,21.342,40.539v186.532c0,17.821-9.667,34.278-25.229,42.948l-59.923,33.386   c-4.145,2.309-8.593,4.011-13.188,5.109c-3.931,0.957-7.993,1.444-12.039,1.444h-31.524v-0.039c0-5.523-4.477-10-10-10h-7.292   l2.584-3.973c3.011-4.63,1.699-10.824-2.93-13.835c-4.629-3.012-10.824-1.699-13.835,2.93L233.79,420.61   c-3.221,3.561-5.207,8.266-5.222,13.445l-34.311-0.037c0-5.187-1.997-9.904-5.242-13.466l-13.952-21.449   c-3.011-4.629-9.206-5.94-13.835-2.93c-4.629,3.011-5.941,9.206-2.93,13.835l2.584,3.973h-6.792c-5.523,0-10,4.477-10,10v11.79   h-31.33c-5.523,0-10,4.477-10,10v37.8c0,5.523,4.477,10,10,10h31.33v8.428c0,5.523,4.477,10,10,10h115.162   c5.095,0,9.291-3.813,9.912-8.739h46.116c3.945,0,7.926-0.31,11.814-0.986c8.231-1.375,16.204-4.174,23.504-8.295l91.579-51.704   C482.292,425.16,501,393.005,501,358.357v-220.71C501,106.191,485.623,76.639,459.869,58.595z M144.087,473.571H122.76v-17.8   h21.327V473.571z M353.777,20c0.791,0,1.58,0.022,2.368,0.059c0.064,0.003,0.128,0.008,0.192,0.011l-17.246,36.709   c-0.072-0.011-0.144-0.019-0.216-0.03c-0.639-0.1-1.281-0.187-1.923-0.27c-3.071-0.4-6.175-0.609-9.273-0.609h-25.903V20H353.777z    M164.09,434l10.167,0.019c0,11.048,8.986,20.037,20.032,20.037h34.279c11.046,0,20.032-8.988,20.064-20.073h10.62v58.018H164.09   V434z M279.254,483.26v-39.239h31.52c1.086,0,2.17-0.034,3.253-0.083c0.237-0.011,0.474-0.021,0.711-0.034   c1.036-0.058,2.071-0.134,3.103-0.236c0.067-0.007,0.134-0.009,0.201-0.015l8.632,39.563c-0.465,0.013-0.929,0.045-1.394,0.045   H279.254z M481,358.357c0,27.469-14.831,52.961-38.68,66.515l-91.554,51.69c-1.486,0.839-3.021,1.578-4.578,2.264l-8.718-39.953   c2.832-1.132,5.595-2.445,8.268-3.934l59.922-33.386c21.895-12.198,35.496-35.35,35.496-60.42V154.601   c0-22.808-11.225-44.127-30.062-57.054L368.07,68.299c-3.103-2.11-6.344-3.955-9.691-5.54l17.716-37.71   c2.596,1.242,5.105,2.698,7.496,4.379l64.789,45.538c0.004,0.003,0.008,0.006,0.013,0.009C468.81,89.28,481,112.708,481,137.647   V358.357z"/>
</g>















</svg>
