<svg id="Layer_1" height="512" viewBox="0 0 512 512" width="512" xmlns="http://www.w3.org/2000/svg" data-name="Layer 1"><path d="m187.056 191.731h-91.9a46.568 46.568 0 0 0 -46.516 46.515v35.5a46.518 46.518 0 0 0 49.83 46.4l54.388-3.885a73.032 73.032 0 0 0 67.589-72.59v-18.554a33.425 33.425 0 0 0 -33.391-33.386zm-52.979 30.308-50.818 60.191a6 6 0 1 1 -9.169-7.742l50.818-60.188a6 6 0 1 1 9.169 7.742z"/><path d="m417.226 191.731h-91.9a33.424 33.424 0 0 0 -33.387 33.386v18.556a73.032 73.032 0 0 0 67.589 72.59l54.387 3.885a46.519 46.519 0 0 0 49.831-46.4v-35.5a46.568 46.568 0 0 0 -46.52-46.517zm-106.687 57.913a6 6 0 0 1 -.714-8.455l25.409-30.1a6 6 0 1 1 9.169 7.74l-25.409 30.1a6 6 0 0 1 -8.455.715zm66.632-28.918-50.818 60.191a6 6 0 1 1 -9.169-7.742l50.816-60.191a6 6 0 1 1 9.169 7.742z"/><path d="m294.616 191.731h-76.854a45.319 45.319 0 0 1 14.272 27.386h48.309a45.326 45.326 0 0 1 14.273-27.386z"/><path d="m496 233.441h-26.258v12h26.258a6 6 0 0 0 0-12z"/><path d="m10 239.441a6 6 0 0 0 6 6h26.258v-12h-26.258a6 6 0 0 0 -6 6z"/></svg>