<svg height="464pt" viewBox="0 0 464 464" width="464pt" xmlns="http://www.w3.org/2000/svg"><path d="m304 120h128c17.671875 0 32 14.328125 32 32v296c0 8.835938-7.164062 16-16 16h-160c-8.835938 0-16-7.164062-16-16v-296c0-17.671875 14.328125-32 32-32zm0 0" fill="#d9176c"/><path d="m184 400h-144l-32-368h208zm0 0" fill="#e97424"/><path d="m432 120h-128c-17.671875 0-32 14.328125-32 32v272h192v-272c0-17.671875-14.328125-32-32-32zm0 0" fill="#e97424"/><path d="m40 400h144v32c0 17.671875-14.328125 32-32 32h-80c-17.671875 0-32-14.328125-32-32zm0 0" fill="#d9176c"/><path d="m76 400h72v16c0 8.835938-7.164062 16-16 16h-40c-8.835938 0-16-7.164062-16-16zm0 0" fill="#fcf05a"/><path d="m152 272h-88c-4.417969 0-8-3.582031-8-8s3.582031-8 8-8h88c4.417969 0 8 3.582031 8 8s-3.582031 8-8 8zm0 0" fill="#fff"/><path d="m160 304h-96c-4.417969 0-8-3.582031-8-8s3.582031-8 8-8h96c4.417969 0 8 3.582031 8 8s-3.582031 8-8 8zm0 0" fill="#fff"/><path d="m104 336h-40c-4.417969 0-8-3.582031-8-8s3.582031-8 8-8h40c4.417969 0 8 3.582031 8 8s-3.582031 8-8 8zm0 0" fill="#fff"/><g fill="#fcf05a"><path d="m136 136c0 13.253906-10.746094 24-24 24s-24-10.746094-24-24 10.746094-24 24-24 24 10.746094 24 24zm0 0"/><path d="m112 216c-4.417969 0-8-3.582031-8-8v-16c0-4.417969 3.582031-8 8-8s8 3.582031 8 8v16c0 4.417969-3.582031 8-8 8zm0 0"/><path d="m112 88c-4.417969 0-8-3.582031-8-8v-16c0-4.417969 3.582031-8 8-8s8 3.582031 8 8v16c0 4.417969-3.582031 8-8 8zm0 0"/><path d="m56 144h-8c-4.417969 0-8-3.582031-8-8s3.582031-8 8-8h8c4.417969 0 8 3.582031 8 8s-3.582031 8-8 8zm0 0"/><path d="m176 144h-8c-4.417969 0-8-3.582031-8-8s3.582031-8 8-8h8c4.417969 0 8 3.582031 8 8s-3.582031 8-8 8zm0 0"/><path d="m64 192c-3.234375 0-6.152344-1.949219-7.390625-4.9375s-.550781-6.429688 1.734375-8.71875l8.398438-8.398438c2.011718-2.082031 4.984374-2.914062 7.78125-2.183593 2.796874.734375 4.980468 2.917969 5.714843 5.714843.730469 2.796876-.101562 5.769532-2.183593 7.78125l-8.398438 8.398438c-1.5 1.5-3.535156 2.34375-5.65625 2.34375zm0 0"/><path d="m151.601562 104.398438c-3.238281 0-6.152343-1.949219-7.390624-4.9375-1.238282-2.988282-.554688-6.429688 1.734374-8.71875l8.398438-8.398438c3.140625-3.03125 8.128906-2.988281 11.214844.097656 3.085937 3.085938 3.128906 8.074219.097656 11.214844l-8.398438 8.398438c-1.5 1.5-3.535156 2.34375-5.65625 2.34375zm0 0"/><path d="m72.398438 104.398438c-2.121094 0-4.15625-.84375-5.65625-2.34375l-8.398438-8.398438c-3.03125-3.140625-2.988281-8.128906.097656-11.214844 3.085938-3.085937 8.074219-3.128906 11.214844-.097656l8.398438 8.398438c2.289062 2.289062 2.972656 5.730468 1.734374 8.71875-1.238281 2.988281-4.152343 4.9375-7.390624 4.9375zm0 0"/><path d="m160.398438 192.398438c-2.121094 0-4.15625-.84375-5.65625-2.34375l-8.398438-8.398438c-3.03125-3.140625-2.988281-8.128906.097656-11.214844 3.085938-3.085937 8.074219-3.128906 11.214844-.097656l8.398438 8.398438c2.289062 2.289062 2.972656 5.730468 1.734374 8.71875-1.238281 2.988281-4.152343 4.9375-7.390624 4.9375zm0 0"/><path d="m392 312c0 13.253906-10.746094 24-24 24s-24-10.746094-24-24 10.746094-24 24-24 24 10.746094 24 24zm0 0"/><path d="m368 392c-4.417969 0-8-3.582031-8-8v-16c0-4.417969 3.582031-8 8-8s8 3.582031 8 8v16c0 4.417969-3.582031 8-8 8zm0 0"/><path d="m368 264c-4.417969 0-8-3.582031-8-8v-16c0-4.417969 3.582031-8 8-8s8 3.582031 8 8v16c0 4.417969-3.582031 8-8 8zm0 0"/><path d="m312 320h-8c-4.417969 0-8-3.582031-8-8s3.582031-8 8-8h8c4.417969 0 8 3.582031 8 8s-3.582031 8-8 8zm0 0"/><path d="m432 320h-8c-4.417969 0-8-3.582031-8-8s3.582031-8 8-8h8c4.417969 0 8 3.582031 8 8s-3.582031 8-8 8zm0 0"/><path d="m320 368c-3.234375 0-6.152344-1.949219-7.390625-4.9375s-.550781-6.429688 1.734375-8.71875l8.398438-8.398438c3.140624-3.03125 8.128906-2.988281 11.214843.097657 3.085938 3.085937 3.128907 8.074219.097657 11.214843l-8.398438 8.398438c-1.5 1.5-3.535156 2.34375-5.65625 2.34375zm0 0"/><path d="m407.601562 280.398438c-3.238281 0-6.152343-1.949219-7.390624-4.9375-1.238282-2.988282-.554688-6.429688 1.734374-8.71875l8.398438-8.398438c3.140625-3.03125 8.128906-2.988281 11.214844.097656 3.085937 3.085938 3.128906 8.074219.097656 11.214844l-8.398438 8.398438c-1.5 1.5-3.535156 2.34375-5.65625 2.34375zm0 0"/><path d="m328.398438 280.398438c-2.121094 0-4.15625-.84375-5.65625-2.34375l-8.398438-8.398438c-3.03125-3.140625-2.988281-8.128906.097656-11.214844 3.085938-3.085937 8.074219-3.128906 11.214844-.097656l8.398438 8.398438c2.289062 2.289062 2.972656 5.730468 1.734374 8.71875-1.238281 2.988281-4.152343 4.9375-7.390624 4.9375zm0 0"/><path d="m416.398438 368.398438c-2.121094 0-4.15625-.84375-5.65625-2.34375l-8.398438-8.398438c-3.03125-3.140625-2.988281-8.128906.097656-11.214844 3.085938-3.085937 8.074219-3.128906 11.214844-.097656l8.398438 8.398438c2.289062 2.289062 2.972656 5.730468 1.734374 8.71875-1.238281 2.988281-4.152343 4.9375-7.390624 4.9375zm0 0"/></g><path d="m216 32h-208l-8-32h224zm0 0" fill="#d9176c"/><path d="m392 160h-88c-4.417969 0-8-3.582031-8-8s3.582031-8 8-8h88c4.417969 0 8 3.582031 8 8s-3.582031 8-8 8zm0 0" fill="#fff"/><path d="m432 192h-128c-4.417969 0-8-3.582031-8-8s3.582031-8 8-8h128c4.417969 0 8 3.582031 8 8s-3.582031 8-8 8zm0 0" fill="#fff"/><path d="m312 88h112v32h-112zm0 0" fill="#9b1e5a"/><path d="m320 0h96c17.671875 0 32 14.328125 32 32v56h-160v-56c0-17.671875 14.328125-32 32-32zm0 0" fill="#d9176c"/><path d="m288 56h160v32h-160zm0 0" fill="#e97424"/><path d="m320 0h16v24h-16zm0 0" fill="#f98c96"/><path d="m352 0h16v24h-16zm0 0" fill="#f98c96"/></svg>