<svg height="448pt" viewBox="-104 0 448 448" width="448pt" xmlns="http://www.w3.org/2000/svg"><path d="m0 0h240v16h-240zm0 0"/><path d="m184 448c4.417969 0 8-3.582031 8-8v-56h-144v56c0 4.417969 3.582031 8 8 8zm0 0"/><path d="m72 272h96v16h-96zm0 0"/><path d="m1.167969 32 45.816406 336h146.03125l45.816406-336zm145.175781 82.34375 16-16c3.140625-3.03125 8.128906-2.988281 11.214844.097656 3.085937 3.085938 3.128906 8.074219.097656 11.214844l-16 16c-3.140625 3.03125-8.128906 2.988281-11.214844-.097656-3.085937-3.085938-3.128906-8.074219-.097656-11.214844zm27.3125 80c2.078125 2.007812 2.914062 4.984375 2.179688 7.78125-.730469 2.796875-2.914063 4.980469-5.710938 5.710938-2.796875.734374-5.773438-.101563-7.78125-2.179688l-16-16c-3.03125-3.140625-2.988281-8.128906.097656-11.214844 3.085938-3.085937 8.074219-3.128906 11.214844-.097656zm-61.65625-106.34375c0-4.417969 3.582031-8 8-8s8 3.582031 8 8v16c0 4.417969-3.582031 8-8 8s-8-3.582031-8-8zm8 40c13.253906 0 24 10.746094 24 24s-10.746094 24-24 24-24-10.746094-24-24 10.746094-24 24-24zm8 72v16c0 4.417969-3.582031 8-8 8s-8-3.582031-8-8v-16c0-4.417969 3.582031-8 8-8s8 3.582031 8 8zm-61.65625-101.65625c3.125-3.121094 8.1875-3.121094 11.3125 0l16 16c2.078125 2.007812 2.914062 4.984375 2.179688 7.78125-.730469 2.796875-2.914063 4.980469-5.710938 5.710938-2.796875.734374-5.773438-.101563-7.78125-2.179688l-16-16c-3.121094-3.125-3.121094-8.1875 0-11.3125zm27.3125 91.3125-16 16c-3.140625 3.03125-8.128906 2.988281-11.214844-.097656-3.085937-3.085938-3.128906-8.074219-.097656-11.214844l16-16c3.140625-3.03125 8.128906-2.988281 11.214844.097656 3.085937 3.085938 3.128906 8.074219.097656 11.214844zm-45.65625-37.65625c0-4.417969 3.582031-8 8-8h16c4.417969 0 8 3.582031 8 8s-3.582031 8-8 8h-16c-4.417969 0-8-3.582031-8-8zm136 144c0 4.417969-3.582031 8-8 8h-112c-4.417969 0-8-3.582031-8-8v-32c0-4.417969 3.582031-8 8-8h112c4.417969 0 8 3.582031 8 8zm0-136h-16c-4.417969 0-8-3.582031-8-8s3.582031-8 8-8h16c4.417969 0 8 3.582031 8 8s-3.582031 8-8 8zm0 0"/><path d="m128 152c0 4.417969-3.582031 8-8 8s-8-3.582031-8-8 3.582031-8 8-8 8 3.582031 8 8zm0 0"/></svg>