<svg id="Layer_1" height="512" viewBox="0 0 512 512" width="512" xmlns="http://www.w3.org/2000/svg" data-name="Layer 1"><path d="m469.74 239.44v34.31a52.515 52.515 0 0 1 -56.26 52.38l-54.38-3.88a78.784 78.784 0 0 1 -73.17-78.58v-18.55a39.4 39.4 0 0 1 39.39-39.39h91.91a52.513 52.513 0 0 1 52.51 52.52z" fill="#f8ec7d"/><path d="m187.06 185.73h138.26a39.4 39.4 0 0 0 -39.39 39.39h-59.49a39.387 39.387 0 0 0 -39.38-39.39z" fill="#6fe3ff"/><path d="m226.44 225.12v18.55a78.783 78.783 0 0 1 -73.16 78.58l-54.39 3.88a52.507 52.507 0 0 1 -56.25-52.38v-35.5a52.513 52.513 0 0 1 52.51-52.52h91.91a39.387 39.387 0 0 1 39.38 39.39z" fill="#f8ec7d"/><g fill="#63316d"><path d="m75.905 250.24 25.4-30.09a6 6 0 0 0 -9.17-7.74l-25.4 30.09a6 6 0 1 0 9.17 7.74z"/><path d="m133.361 213.586a6 6 0 0 0 -8.455.713l-50.821 60.19a6 6 0 0 0 9.169 7.742l50.821-60.19a6 6 0 0 0 -.714-8.455z"/><path d="m319 248.93 25.41-30.1a6 6 0 1 0 -9.17-7.74l-25.41 30.1a6 6 0 1 0 9.17 7.74z"/><path d="m376.46 212.276a6 6 0 0 0 -8.455.713l-50.819 60.19a6 6 0 1 0 9.168 7.742l50.82-60.19a6 6 0 0 0 -.714-8.455z"/><path d="m496 233.44h-20.474a58.581 58.581 0 0 0 -58.3-53.71h-322.076a58.581 58.581 0 0 0 -58.3 53.71h-20.85a6 6 0 0 0 0 12h20.64v28.31a58.5 58.5 0 0 0 58.55 58.512q2.058 0 4.127-.148l54.391-3.88a84.783 84.783 0 0 0 78.732-84.564v-12.55h47.49v12.55a84.784 84.784 0 0 0 78.743 84.564l54.38 3.88q2.067.149 4.128.148a58.512 58.512 0 0 0 58.559-58.512v-28.31h20.26a6 6 0 0 0 0-12zm-201.387-41.71a45.324 45.324 0 0 0 -14.274 27.39h-48.308a45.33 45.33 0 0 0 -14.27-27.39zm-74.173 51.94a73.043 73.043 0 0 1 -67.587 72.6l-54.39 3.88a46.508 46.508 0 0 1 -49.823-46.4v-35.5a46.568 46.568 0 0 1 46.51-46.52h91.91a33.423 33.423 0 0 1 33.38 33.39zm243.3 30.08a46.517 46.517 0 0 1 -49.833 46.4l-54.379-3.88a73.047 73.047 0 0 1 -67.6-72.6v-18.55a33.428 33.428 0 0 1 33.39-33.39h91.91a46.568 46.568 0 0 1 46.51 46.52z"/></g></svg>